<svg width="24" height="24" viewBox="0 0 24 24" fill="none" xmlns="http://www.w3.org/2000/svg">
<path d="M9.00012 21H5.00012C4.46969 21 3.96098 20.7893 3.58591 20.4142C3.21084 20.0391 3.00012 19.5304 3.00012 19V5C3.00012 4.46957 3.21084 3.96086 3.58591 3.58579C3.96098 3.21071 4.46969 3 5.00012 3H9.00012" fill="#FEF3F3"/>
<path d="M9.00012 21H5.00012C4.46969 21 3.96098 20.7893 3.58591 20.4142C3.21084 20.0391 3.00012 19.5304 3.00012 19V5C3.00012 4.46957 3.21084 3.96086 3.58591 3.58579C3.96098 3.21071 4.46969 3 5.00012 3H9.00012" stroke="#FEF3F3" stroke-width="2" stroke-linecap="round" stroke-linejoin="round"/>
<path d="M16.0001 17L21.0001 12L16.0001 7" fill="#FEF3F3"/>
<path d="M16.0001 17L21.0001 12L16.0001 7" stroke="#FEF3F3" stroke-width="2" stroke-linecap="round" stroke-linejoin="round"/>
<path d="M21.0001 12H9.00012" stroke="#FEF3F3" stroke-width="2" stroke-linecap="round" stroke-linejoin="round"/>
</svg>
