<svg width="597" height="245" viewBox="0 0 597 245" fill="none" xmlns="http://www.w3.org/2000/svg">
<path d="M201.711 230.568C201.188 230.568 200.633 230.47 200.045 230.274C199.457 230.111 198.983 229.817 198.624 229.392C198.265 228.967 198.15 228.445 198.281 227.824C198.412 227.203 198.869 226.583 199.653 225.962C200.437 225.309 201.401 224.672 202.544 224.051C203.687 223.43 204.863 222.875 206.072 222.385C207.313 221.895 208.473 221.503 209.551 221.209C210.662 220.882 211.527 220.703 212.148 220.67C212.246 220.67 212.295 220.703 212.295 220.768C212.295 220.899 212.197 221.062 212.001 221.258C211.805 221.454 211.625 221.585 211.462 221.65C210.743 221.846 209.812 222.173 208.669 222.63C207.558 223.055 206.431 223.545 205.288 224.1C204.177 224.655 203.197 225.227 202.348 225.815C201.858 226.142 201.515 226.419 201.319 226.648C201.123 226.844 201.025 227.007 201.025 227.138C201.025 227.301 201.156 227.399 201.417 227.432C201.711 227.465 201.94 227.481 202.103 227.481C203.181 227.416 204.39 227.187 205.729 226.795C207.068 226.37 208.359 225.815 209.6 225.129C210.874 224.443 211.952 223.692 212.834 222.875C213.716 222.026 214.239 221.176 214.402 220.327C214.5 219.87 214.092 219.527 213.177 219.298C212.295 219.069 211.037 218.955 209.404 218.955C209.045 218.955 208.669 218.955 208.277 218.955C207.885 218.955 207.477 218.971 207.052 219.004C206.758 218.906 206.611 218.71 206.611 218.416C206.611 217.861 206.872 217.55 207.395 217.485C209.714 216.799 212.017 215.933 214.304 214.888C216.591 213.81 218.763 212.65 220.821 211.409C222.912 210.168 224.774 208.943 226.407 207.734C228.04 206.525 229.331 205.447 230.278 204.5C230.474 204.304 230.637 204.108 230.768 203.912C230.899 203.683 230.964 203.455 230.964 203.226C230.964 202.801 230.686 202.426 230.131 202.099C229.249 201.576 228.073 201.184 226.603 200.923C225.166 200.629 223.696 200.482 222.193 200.482C219.612 200.482 216.819 200.841 213.814 201.56C210.809 202.279 207.852 203.291 204.945 204.598C202.038 205.905 199.408 207.456 197.056 209.253C196.272 209.874 195.57 210.56 194.949 211.311C194.361 212.062 193.969 212.912 193.773 213.859C193.642 214.447 193.74 214.953 194.067 215.378C194.394 215.803 194.524 216.178 194.459 216.505C194.459 216.668 194.377 216.75 194.214 216.75C193.985 216.75 193.708 216.652 193.381 216.456C192.858 216.031 192.336 215.476 191.813 214.79C191.29 214.071 191.029 213.255 191.029 212.34C191.029 210.805 191.878 209.237 193.577 207.636C195.308 206.003 197.513 204.484 200.192 203.079C199.375 203.438 198.542 203.83 197.693 204.255C196.844 204.647 195.978 205.072 195.096 205.529C195.063 205.562 195.031 205.578 194.998 205.578C194.965 205.578 194.949 205.578 194.949 205.578C194.884 205.578 194.933 205.513 195.096 205.382C195.292 205.251 195.472 205.137 195.635 205.039C197.432 204.026 199.228 203.144 201.025 202.393C202.822 201.609 204.586 200.939 206.317 200.384C206.382 200.351 206.431 200.335 206.464 200.335L206.317 200.384C205.206 200.743 204.145 201.168 203.132 201.658C202.119 202.115 201.139 202.589 200.192 203.079C204.537 201.152 208.571 199.812 212.295 199.061C216.019 198.31 219.759 197.918 223.516 197.885C223.777 197.885 223.957 197.885 224.055 197.885C224.153 197.852 224.202 197.836 224.202 197.836C224.202 197.771 224.071 197.722 223.81 197.689C223.549 197.656 223.287 197.64 223.026 197.64C220.837 197.607 218.42 197.771 215.774 198.13C213.161 198.457 210.433 199.061 207.591 199.943C209.747 199.257 211.968 198.685 214.255 198.228C216.542 197.738 218.779 197.428 220.968 197.297C221.262 197.264 221.556 197.248 221.85 197.248C222.177 197.248 222.487 197.248 222.781 197.248C224.48 197.248 226.08 197.411 227.583 197.738C229.086 198.065 230.311 198.653 231.258 199.502C232.238 200.319 232.728 201.478 232.728 202.981C233.283 203.732 233.561 204.435 233.561 205.088C233.561 205.872 233.169 206.705 232.385 207.587L232.483 207.44C232.156 207.734 231.585 208.175 230.768 208.763C229.951 209.318 229.069 209.923 228.122 210.576C227.175 211.229 226.309 211.801 225.525 212.291C224.741 212.781 224.202 213.108 223.908 213.271L220.968 214.79C221.556 214.561 222.144 214.333 222.732 214.104C223.353 213.875 223.941 213.63 224.496 213.369L223.712 213.81C223.287 214.039 222.716 214.316 221.997 214.643C221.311 214.937 220.592 215.231 219.841 215.525C219.09 215.819 218.404 216.064 217.783 216.26C217.162 216.456 216.705 216.57 216.411 216.603C216.346 216.603 216.444 216.554 216.705 216.456C216.999 216.325 217.342 216.195 217.734 216.064C218.159 215.933 218.518 215.819 218.812 215.721C219.041 215.656 219.335 215.558 219.694 215.427C220.053 215.264 220.445 215.068 220.87 214.839C219.302 215.427 217.701 215.95 216.068 216.407C214.467 216.864 212.899 217.289 211.364 217.681C211.952 217.681 212.622 217.779 213.373 217.975C214.124 218.138 214.859 218.4 215.578 218.759C216.297 219.118 216.885 219.559 217.342 220.082C217.799 220.572 218.028 221.16 218.028 221.846C218.028 222.042 218.012 222.205 217.979 222.336C217.816 223.153 217.211 224.035 216.166 224.982C215.153 225.897 213.863 226.779 212.295 227.628C210.727 228.445 209.012 229.114 207.15 229.637C205.321 230.192 203.508 230.503 201.711 230.568ZM206.464 200.335C206.497 200.335 206.513 200.319 206.513 200.286C206.546 200.286 206.562 200.286 206.562 200.286C206.595 200.286 206.611 200.286 206.611 200.286C206.644 200.253 206.676 200.237 206.709 200.237C206.709 200.237 206.725 200.237 206.758 200.237C206.758 200.237 206.774 200.221 206.807 200.188C206.872 200.188 206.905 200.188 206.905 200.188L206.954 200.139H207.003H207.052L207.15 200.09C207.117 200.09 207.085 200.106 207.052 200.139C207.052 200.139 207.036 200.139 207.003 200.139C207.003 200.139 206.987 200.139 206.954 200.139C206.921 200.172 206.905 200.188 206.905 200.188C206.905 200.188 206.872 200.188 206.807 200.188L206.758 200.237H206.709L206.611 200.286H206.562H206.513L206.464 200.335ZM192.744 233.214C192.123 232.691 191.666 232.169 191.372 231.646C191.111 231.156 190.98 230.682 190.98 230.225C190.98 229.964 191.029 229.686 191.127 229.392C191.388 228.641 191.911 227.661 192.695 226.452C193.512 225.211 194.492 223.839 195.635 222.336C196.811 220.833 198.052 219.282 199.359 217.681C200.698 216.08 202.005 214.529 203.279 213.026C204.553 211.491 205.713 210.119 206.758 208.91C207.836 207.669 208.685 206.672 209.306 205.921C209.045 206.052 208.832 206.117 208.669 206.117C208.538 206.117 208.473 206.068 208.473 205.97C208.473 205.839 208.571 205.676 208.767 205.48C209.126 205.023 209.437 204.647 209.698 204.353C209.959 204.026 210.09 203.863 210.09 203.863C210.286 203.798 210.613 203.879 211.07 204.108C211.56 204.304 212.066 204.582 212.589 204.941C213.112 205.268 213.536 205.627 213.863 206.019C214.222 206.378 214.337 206.689 214.206 206.95C213.095 208.028 211.838 209.286 210.433 210.723C209.028 212.16 207.558 213.712 206.023 215.378C204.488 217.044 202.969 218.759 201.466 220.523C199.963 222.254 198.559 223.969 197.252 225.668C195.945 227.334 194.818 228.902 193.871 230.372C193.936 230.274 194.018 230.176 194.116 230.078C194.214 229.98 194.328 229.866 194.459 229.735L198.624 224.786C199.114 224.263 199.392 224.002 199.457 224.002C199.49 224.002 199.506 224.018 199.506 224.051C199.506 224.149 199.408 224.296 199.212 224.492C198.493 225.374 197.709 226.338 196.86 227.383C196.043 228.396 195.259 229.408 194.508 230.421C193.757 231.434 193.169 232.365 192.744 233.214ZM230.915 209.008C231.176 208.747 231.438 208.502 231.699 208.273C231.96 208.044 232.189 207.816 232.385 207.587C232.254 207.75 232.058 207.963 231.797 208.224C231.568 208.453 231.274 208.714 230.915 209.008ZM225.035 213.075C226.113 212.454 227.142 211.801 228.122 211.115C229.135 210.429 229.984 209.792 230.67 209.204L230.915 209.008C230.915 209.008 230.899 209.024 230.866 209.057C230.866 209.057 230.801 209.106 230.67 209.204L229.298 210.38C228.677 210.903 228.008 211.376 227.289 211.801C226.57 212.226 225.819 212.65 225.035 213.075ZM226.883 229.833C226.687 229.833 226.377 229.604 225.952 229.147C225.56 228.722 225.152 228.249 224.727 227.726C224.335 227.171 224.041 226.762 223.845 226.501C224.139 225.227 224.645 223.904 225.364 222.532C226.115 221.127 226.981 219.755 227.961 218.416C228.941 217.077 229.921 215.835 230.901 214.692C231.914 213.549 232.796 212.585 233.547 211.801C232.992 212.226 232.404 212.781 231.783 213.467C231.162 214.12 230.738 214.561 230.509 214.79C230.117 215.182 229.725 215.574 229.333 215.966C228.941 216.325 228.582 216.685 228.255 217.044C229.235 215.835 230.199 214.725 231.146 213.712C232.126 212.699 232.828 212.03 233.253 211.703C233.351 211.605 233.482 211.491 233.645 211.36C233.841 211.229 234.053 211.148 234.282 211.115L234.674 210.674C235.556 210.707 236.503 210.984 237.516 211.507C238.529 211.997 239.394 212.65 240.113 213.467C240.864 214.251 241.256 215.149 241.289 216.162C241.289 216.293 241.224 216.423 241.093 216.554C240.962 216.652 240.864 216.587 240.799 216.358C240.57 215.868 240.309 215.427 240.015 215.035C239.721 214.643 239.394 214.333 239.035 214.104C238.708 213.908 238.365 213.81 238.006 213.81C237.614 213.81 237.255 213.941 236.928 214.202C236.275 214.692 235.491 215.427 234.576 216.407C233.694 217.354 232.796 218.383 231.881 219.494C230.999 220.605 230.199 221.683 229.48 222.728C228.794 223.773 228.32 224.639 228.059 225.325C228.255 225.096 228.598 224.77 229.088 224.345C229.578 223.92 230.101 223.496 230.656 223.071C231.211 222.614 231.685 222.238 232.077 221.944C232.208 221.846 232.485 221.65 232.91 221.356C233.335 221.062 233.776 220.752 234.233 220.425C234.723 220.098 235.115 219.853 235.409 219.69C235.409 219.755 235.213 219.935 234.821 220.229C234.462 220.523 234.021 220.85 233.498 221.209C232.975 221.568 232.485 221.895 232.028 222.189C231.603 222.483 231.342 222.679 231.244 222.777C230.885 223.104 230.46 223.479 229.97 223.904C229.513 224.329 229.088 224.721 228.696 225.08C228.304 225.439 228.043 225.701 227.912 225.864C227.847 225.995 227.83 226.076 227.863 226.109C227.896 226.142 227.961 226.093 228.059 225.962C228.353 225.537 228.794 225.08 229.382 224.59C229.97 224.1 230.607 223.61 231.293 223.12C232.012 222.597 232.649 222.124 233.204 221.699C233.857 221.209 234.445 220.784 234.968 220.425C235.523 220.033 236.013 219.674 236.438 219.347C236.471 218.661 236.716 218.187 237.173 217.926C237.663 217.665 238.039 217.583 238.3 217.681C238.496 217.746 238.79 217.877 239.182 218.073C239.607 218.236 239.982 218.449 240.309 218.71C240.636 218.939 240.734 219.2 240.603 219.494C240.374 220.017 240.195 220.833 240.064 221.944C239.966 223.022 239.917 224.018 239.917 224.933C239.917 226.24 240.325 226.893 241.142 226.893C241.567 226.893 242.138 226.664 242.857 226.207C243.118 226.044 243.314 225.962 243.445 225.962C243.543 225.962 243.592 226.011 243.592 226.109C243.592 226.24 243.51 226.436 243.347 226.697C243.184 226.926 243.069 227.073 243.004 227.138C242.612 227.563 242.138 227.955 241.583 228.314C241.06 228.641 240.521 228.804 239.966 228.804C239.737 228.804 239.509 228.771 239.28 228.706C239.051 228.641 238.823 228.526 238.594 228.363C237.777 227.808 237.189 226.958 236.83 225.815C236.503 224.672 236.34 223.692 236.34 222.875C236.34 222.679 236.34 222.499 236.34 222.336C236.373 222.173 236.405 222.026 236.438 221.895C236.079 222.189 235.474 222.695 234.625 223.414C233.808 224.1 232.894 224.884 231.881 225.766C230.868 226.615 229.905 227.416 228.99 228.167C228.075 228.918 227.373 229.474 226.883 229.833ZM245.024 229C244.469 228.935 244.028 228.624 243.701 228.069C243.374 227.481 243.211 226.926 243.211 226.403C243.211 225.978 243.44 225.309 243.897 224.394C244.387 223.479 244.991 222.45 245.71 221.307C246.461 220.131 247.229 218.988 248.013 217.877C248.83 216.734 249.548 215.721 250.169 214.839C250.822 213.957 251.28 213.336 251.541 212.977C251.116 213.369 250.724 213.761 250.365 214.153C250.006 214.545 249.793 214.741 249.728 214.741C249.695 214.741 249.859 214.447 250.218 213.859C250.61 213.238 251.361 212.128 252.472 210.527C252.799 210.527 253.191 210.707 253.648 211.066C254.105 211.425 254.514 211.834 254.873 212.291C255.232 212.748 255.412 213.14 255.412 213.467C255.053 214.055 254.481 214.806 253.697 215.721C252.946 216.603 252.145 217.518 251.296 218.465C250.479 219.412 249.744 220.278 249.091 221.062C249.189 220.964 249.581 220.621 250.267 220.033C250.986 219.445 251.868 218.71 252.913 217.828C253.958 216.946 255.069 216.015 256.245 215.035C257.454 214.055 258.597 213.14 259.675 212.291C260.753 211.409 261.668 210.707 262.419 210.184C263.203 209.629 263.693 209.351 263.889 209.351C264.085 209.351 264.363 209.547 264.722 209.939C265.114 210.298 265.473 210.707 265.8 211.164C266.127 211.621 266.29 211.997 266.29 212.291C266.29 212.324 266.045 212.601 265.555 213.124C265.098 213.647 264.51 214.316 263.791 215.133C263.105 215.917 262.419 216.75 261.733 217.632C261.047 218.481 260.459 219.282 259.969 220.033C259.512 220.784 259.299 221.34 259.332 221.699C259.005 221.634 258.728 221.34 258.499 220.817C258.27 220.262 258.156 219.641 258.156 218.955C258.156 218.563 258.27 218.089 258.499 217.534C258.76 216.979 259.038 216.44 259.332 215.917C259.659 215.394 259.936 214.937 260.165 214.545C260.426 214.153 260.557 213.941 260.557 213.908C260.361 214.137 260.083 214.512 259.724 215.035C259.397 215.558 259.071 216.08 258.744 216.603C258.45 217.093 258.254 217.452 258.156 217.681C258.254 217.289 258.532 216.652 258.989 215.77C259.446 214.888 260.051 214.006 260.802 213.124C260.443 213.451 259.822 214.006 258.94 214.79C258.091 215.541 257.111 216.44 256 217.485C254.889 218.53 253.73 219.625 252.521 220.768C251.345 221.879 250.218 222.973 249.14 224.051C248.062 225.129 247.147 226.109 246.396 226.991C245.677 227.84 245.22 228.51 245.024 229ZM264.269 230.225C263.648 230.225 263.06 230.16 262.505 230.029C261.884 230.029 261.329 229.964 260.839 229.833C260.381 229.702 260.153 229.131 260.153 228.118C260.153 227.726 260.218 227.383 260.349 227.089C260.218 226.828 260.153 226.501 260.153 226.109C260.153 225.358 260.43 224.623 260.986 223.904C261.835 222.565 262.929 220.98 264.269 219.151C265.608 217.322 267.078 215.411 268.679 213.418C270.279 211.393 271.864 209.482 273.432 207.685C274.738 206.182 275.669 205.072 276.225 204.353C276.813 203.634 277.107 203.161 277.107 202.932C276.976 202.801 276.878 202.654 276.813 202.491C276.78 202.328 276.764 202.181 276.764 202.05C276.764 201.854 276.78 201.691 276.813 201.56C276.845 201.397 276.862 201.282 276.862 201.217V200.825C276.862 200.629 276.878 200.466 276.911 200.335C276.976 200.172 277.123 200.09 277.352 200.09C277.417 200.09 277.482 200.106 277.548 200.139C277.646 200.139 277.744 200.155 277.842 200.188C278.266 200.319 278.805 200.58 279.459 200.972C280.145 201.364 280.733 201.805 281.223 202.295C281.713 202.785 281.86 203.291 281.664 203.814C281.664 204.141 281.5 204.484 281.174 204.843C280.847 205.202 280.275 205.758 279.459 206.509C278.642 207.228 277.499 208.322 276.029 209.792C273.938 211.883 272.027 213.924 270.296 215.917C268.564 217.877 266.768 220.017 264.906 222.336C265.232 222.009 265.837 221.421 266.719 220.572C267.601 219.69 268.613 218.71 269.757 217.632C270.933 216.554 272.125 215.509 273.334 214.496C274.575 213.483 275.702 212.634 276.715 211.948C277.76 211.229 278.593 210.821 279.214 210.723C279.867 210.723 280.39 210.837 280.782 211.066C281.174 211.295 281.386 211.736 281.419 212.389C281.811 212.683 282.007 213.108 282.007 213.663C282.007 214.284 281.794 215.002 281.37 215.819C280.978 216.636 280.471 217.436 279.851 218.22C279.23 218.971 278.626 219.608 278.038 220.131C278.005 220.164 278.136 220 278.43 219.641C278.724 219.282 279.067 218.841 279.459 218.318C279.851 217.795 280.21 217.256 280.537 216.701C280.863 216.146 281.043 215.688 281.076 215.329C280.814 215.852 280.422 216.505 279.9 217.289C279.41 218.073 278.903 218.808 278.381 219.494C277.891 220.18 277.515 220.67 277.254 220.964C276.339 221.977 275.408 222.859 274.461 223.61C273.513 224.329 272.762 225.031 272.207 225.717C272.566 225.456 273.04 225.096 273.628 224.639C274.216 224.149 274.836 223.626 275.49 223.071C276.143 222.483 276.731 221.928 277.254 221.405C277.221 221.536 276.992 221.813 276.568 222.238C276.143 222.63 275.62 223.104 275 223.659C274.412 224.182 273.807 224.704 273.187 225.227C272.599 225.717 272.092 226.142 271.668 226.501C271.243 226.828 270.998 226.975 270.933 226.942C269.757 227.889 268.662 228.673 267.65 229.294C266.637 229.915 265.51 230.225 264.269 230.225ZM261.721 228.265C262.57 228.232 263.501 228.036 264.514 227.677C265.559 227.285 266.539 226.811 267.454 226.256C268.368 225.701 269.087 225.162 269.61 224.639C270.72 223.528 271.831 222.254 272.942 220.817C274.052 219.38 275.049 217.959 275.931 216.554C276.813 215.149 277.433 213.941 277.793 212.928C277.303 213.157 276.731 213.467 276.078 213.859C275.457 214.218 274.853 214.594 274.265 214.986C273.709 215.378 273.268 215.688 272.942 215.917C271.733 216.766 270.573 217.73 269.463 218.808C268.385 219.886 267.388 220.948 266.474 221.993C265.592 223.038 264.857 223.969 264.269 224.786C263.713 225.57 263.37 226.142 263.24 226.501C263.174 226.73 263.109 226.991 263.044 227.285C263.011 227.546 262.782 227.677 262.358 227.677C262.064 227.677 261.737 227.612 261.378 227.481C261.28 227.448 261.182 227.416 261.084 227.383C261.018 227.318 260.937 227.269 260.839 227.236C260.937 227.497 261.051 227.742 261.182 227.971C261.345 228.167 261.525 228.265 261.721 228.265ZM286.319 229.343C285.601 229.343 284.833 229.065 284.016 228.51C283.2 227.955 282.497 227.301 281.909 226.55C281.354 225.799 281.076 225.113 281.076 224.492C281.076 223.316 281.419 222.058 282.105 220.719C282.824 219.347 283.739 218.008 284.849 216.701C285.993 215.394 287.201 214.235 288.475 213.222C289.749 212.209 290.974 211.474 292.15 211.017C292.477 210.886 292.771 210.805 293.032 210.772C293.294 210.739 293.49 210.723 293.62 210.723C294.012 210.723 294.47 211.001 294.992 211.556C295.515 212.079 295.989 212.65 296.413 213.271C296.838 213.892 297.083 214.365 297.148 214.692C297.148 215.215 296.838 215.852 296.217 216.603C295.629 217.322 294.845 218.073 293.865 218.857C292.885 219.608 291.824 220.311 290.68 220.964C289.57 221.617 288.492 222.14 287.446 222.532C286.401 222.891 285.503 223.055 284.751 223.022C284.229 223.969 283.967 224.753 283.967 225.374C283.967 225.701 284.049 225.995 284.212 226.256C284.376 226.485 284.702 226.583 285.192 226.55C285.976 226.289 286.956 225.815 288.132 225.129C289.308 224.443 290.566 223.675 291.905 222.826C293.277 221.944 294.617 221.095 295.923 220.278C297.263 219.429 298.455 218.726 299.5 218.171C300.056 217.877 300.464 217.73 300.725 217.73C300.954 217.73 301.068 217.812 301.068 217.975C301.068 218.106 300.921 218.318 300.627 218.612C300.366 218.906 299.958 219.2 299.402 219.494C299.108 219.657 298.782 219.853 298.422 220.082C298.063 220.311 297.687 220.572 297.295 220.866C296.381 221.519 295.401 222.271 294.355 223.12C293.343 223.969 292.314 224.819 291.268 225.668C290.256 226.517 289.308 227.269 288.426 227.922C287.577 228.575 286.875 229.049 286.319 229.343ZM285.78 221.405C286.76 221.046 287.806 220.539 288.916 219.886C290.027 219.233 291.072 218.547 292.052 217.828C293.032 217.077 293.816 216.407 294.404 215.819L294.649 215.574C294.649 215.509 294.453 215.623 294.061 215.917L289.945 218.955C289.913 218.988 289.864 219.004 289.798 219.004C289.766 219.004 289.782 218.971 289.847 218.906C289.913 218.808 290.027 218.71 290.19 218.612C290.844 218.155 291.513 217.648 292.199 217.093C292.885 216.505 293.539 215.95 294.159 215.427C294.943 214.806 295.335 214.431 295.335 214.3C294.584 214.3 293.62 214.659 292.444 215.378C291.268 216.097 290.076 216.995 288.867 218.073C287.691 219.151 286.662 220.262 285.78 221.405ZM297.326 229C296.77 228.935 296.329 228.624 296.003 228.069C295.676 227.481 295.513 226.926 295.513 226.403C295.513 225.978 295.741 225.309 296.199 224.394C296.689 223.479 297.293 222.45 298.012 221.307C298.763 220.131 299.531 218.988 300.315 217.877C301.131 216.734 301.85 215.721 302.471 214.839C303.124 213.957 303.581 213.336 303.843 212.977C303.418 213.369 303.026 213.761 302.667 214.153C302.307 214.545 302.095 214.741 302.03 214.741C301.997 214.741 302.16 214.447 302.52 213.859C302.912 213.238 303.663 212.128 304.774 210.527C305.1 210.527 305.492 210.707 305.95 211.066C306.407 211.425 306.815 211.834 307.175 212.291C307.534 212.748 307.714 213.14 307.714 213.467C307.354 214.055 306.783 214.806 305.999 215.721C305.247 216.603 304.447 217.518 303.598 218.465C302.781 219.412 302.046 220.278 301.393 221.062C301.491 220.964 301.883 220.621 302.569 220.033C303.287 219.445 304.169 218.71 305.215 217.828C306.26 216.946 307.371 216.015 308.547 215.035C309.755 214.055 310.899 213.14 311.977 212.291C313.055 211.409 313.969 210.707 314.721 210.184C315.505 209.629 315.995 209.351 316.191 209.351C316.387 209.351 316.664 209.547 317.024 209.939C317.416 210.298 317.775 210.707 318.102 211.164C318.428 211.621 318.592 211.997 318.592 212.291C318.592 212.324 318.347 212.601 317.857 213.124C317.399 213.647 316.811 214.316 316.093 215.133C315.407 215.917 314.721 216.75 314.035 217.632C313.349 218.481 312.761 219.282 312.271 220.033C311.813 220.784 311.601 221.34 311.634 221.699C311.307 221.634 311.029 221.34 310.801 220.817C310.572 220.262 310.458 219.641 310.458 218.955C310.458 218.563 310.572 218.089 310.801 217.534C311.062 216.979 311.34 216.44 311.634 215.917C311.96 215.394 312.238 214.937 312.467 214.545C312.728 214.153 312.859 213.941 312.859 213.908C312.663 214.137 312.385 214.512 312.026 215.035C311.699 215.558 311.372 216.08 311.046 216.603C310.752 217.093 310.556 217.452 310.458 217.681C310.556 217.289 310.833 216.652 311.291 215.77C311.748 214.888 312.352 214.006 313.104 213.124C312.744 213.451 312.124 214.006 311.242 214.79C310.392 215.541 309.412 216.44 308.302 217.485C307.191 218.53 306.031 219.625 304.823 220.768C303.647 221.879 302.52 222.973 301.442 224.051C300.364 225.129 299.449 226.109 298.698 226.991C297.979 227.84 297.522 228.51 297.326 229ZM321.559 230.715C320.939 230.715 320.155 230.486 319.207 230.029C318.26 229.572 317.362 229.016 316.512 228.363C315.696 227.71 315.124 227.122 314.797 226.599C314.405 225.913 314.209 225.341 314.209 224.884C314.209 224.623 314.291 224.492 314.454 224.492C314.748 224.492 315.173 224.835 315.728 225.521C315.957 225.815 316.382 226.109 317.002 226.403C317.656 226.664 318.374 226.893 319.158 227.089C319.975 227.285 320.726 227.383 321.412 227.383C321.576 227.383 321.706 227.383 321.804 227.383C321.935 227.383 322.066 227.367 322.196 227.334C322.164 226.583 321.837 225.815 321.216 225.031C320.596 224.214 319.877 223.365 319.06 222.483C318.276 221.601 317.59 220.703 317.002 219.788C316.578 219.135 316.365 218.449 316.365 217.73C316.365 216.75 316.757 215.819 317.541 214.937C318.325 214.055 319.289 213.255 320.432 212.536C320.726 212.373 321.02 212.209 321.314 212.046C321.608 211.883 321.902 211.736 322.196 211.605C321.674 211.768 321.151 211.964 320.628 212.193C320.106 212.422 319.616 212.667 319.158 212.928H319.109C319.077 212.928 319.109 212.895 319.207 212.83C319.305 212.732 319.387 212.667 319.452 212.634C320.759 211.785 322.131 211.197 323.568 210.87C325.038 210.543 326.329 210.38 327.439 210.38C327.701 210.38 327.946 210.396 328.174 210.429C328.403 210.429 328.615 210.445 328.811 210.478C328.909 210.511 328.975 210.56 329.007 210.625C329.04 210.69 328.975 210.723 328.811 210.723L329.644 211.017C329.938 211.148 330.2 211.572 330.428 212.291C330.69 212.977 330.869 213.598 330.967 214.153C331 214.12 331.016 214.088 331.016 214.055C331.082 213.892 331.114 213.761 331.114 213.663C331.114 213.532 331.131 213.402 331.163 213.271C331.196 213.206 331.278 213.32 331.408 213.614C331.539 213.875 331.653 214.186 331.751 214.545C331.882 214.872 331.947 215.149 331.947 215.378C331.915 215.966 331.702 216.603 331.31 217.289C330.918 217.975 330.494 218.514 330.036 218.906C329.612 219.298 329.252 219.38 328.958 219.151C329.318 218.759 329.595 218.302 329.791 217.779C329.073 218.792 328.207 219.674 327.194 220.425C326.214 221.144 325.43 221.503 324.842 221.503C324.548 221.503 324.401 221.421 324.401 221.258C324.401 221.16 324.467 221.029 324.597 220.866C324.761 220.703 324.875 220.605 324.94 220.572C325.267 220.376 325.675 220.049 326.165 219.592C326.655 219.102 327.145 218.547 327.635 217.926C328.125 217.305 328.55 216.701 328.909 216.113C329.301 215.525 329.563 215.035 329.693 214.643C329.693 214.088 329.301 213.81 328.517 213.81C328.06 213.81 327.521 213.892 326.9 214.055C326.312 214.218 325.708 214.414 325.087 214.643C323.879 215.068 322.768 215.639 321.755 216.358C320.743 217.077 320.236 217.861 320.236 218.71C320.236 219.037 320.334 219.38 320.53 219.739C321.151 220.686 321.788 221.666 322.441 222.679C323.095 223.692 323.65 224.623 324.107 225.472C324.565 226.289 324.793 226.926 324.793 227.383C324.793 227.579 324.646 227.857 324.352 228.216C324.091 228.575 323.764 228.935 323.372 229.294C323.013 229.686 322.654 230.013 322.294 230.274C321.968 230.568 321.723 230.715 321.559 230.715ZM339.55 229.245C339.223 229.245 338.864 229.114 338.472 228.853C338.112 228.592 337.786 228.314 337.492 228.02C337.23 227.693 337.1 227.416 337.1 227.187C337.1 226.991 337.149 226.893 337.247 226.893C337.312 226.893 337.41 226.926 337.541 226.991C337.671 227.024 337.818 227.073 337.982 227.138C337.884 226.909 337.802 226.697 337.737 226.501C337.671 226.305 337.639 226.109 337.639 225.913C337.639 225.88 337.802 225.554 338.129 224.933C338.455 224.28 338.864 223.496 339.354 222.581C339.844 221.666 340.35 220.735 340.873 219.788C341.395 218.808 341.853 217.959 342.245 217.24C342.637 216.521 342.882 216.048 342.98 215.819L342.882 215.966C342.718 216.227 342.457 216.652 342.098 217.24C341.738 217.795 341.363 218.383 340.971 219.004C340.579 219.625 340.252 220.147 339.991 220.572C339.729 220.997 339.599 221.193 339.599 221.16C339.762 220.67 339.974 220.131 340.236 219.543C340.497 218.955 340.84 218.269 341.265 217.485C339.991 218.726 338.619 220.066 337.149 221.503C335.711 222.94 334.388 224.329 333.18 225.668C331.971 226.975 331.056 228.085 330.436 229C329.717 228.379 329.211 227.808 328.917 227.285C328.655 226.762 328.525 226.256 328.525 225.766C328.525 225.57 328.557 225.374 328.623 225.178C328.655 224.982 328.688 224.786 328.721 224.59C328.917 223.904 329.423 222.875 330.24 221.503C331.089 220.131 332.118 218.563 333.327 216.799C334.535 215.035 335.826 213.206 337.198 211.311C338.57 209.416 339.893 207.603 341.167 205.872C342.441 204.141 343.568 202.622 344.548 201.315C345.528 200.008 346.214 199.077 346.606 198.522C346.606 198.489 346.589 198.473 346.557 198.473C346.524 198.473 346.442 198.522 346.312 198.62C346.181 198.718 345.985 198.93 345.724 199.257C345.005 200.172 344.27 201.103 343.519 202.05C342.767 202.997 342.081 203.863 341.461 204.647C340.84 205.431 340.334 206.052 339.942 206.509C339.55 206.966 339.354 207.179 339.354 207.146C339.354 207.113 339.582 206.754 340.04 206.068C340.53 205.382 341.118 204.549 341.804 203.569C342.522 202.589 343.241 201.609 343.96 200.629C344.678 199.649 345.283 198.832 345.773 198.179C346.263 197.526 346.524 197.199 346.557 197.199H346.606C346.736 197.199 346.9 197.248 347.096 197.346C347.324 197.444 347.504 197.526 347.635 197.591C347.896 197.656 348.255 197.885 348.713 198.277C349.203 198.669 349.611 199.11 349.938 199.6C350.297 200.057 350.411 200.466 350.281 200.825C349.889 201.217 349.268 201.903 348.419 202.883C347.569 203.863 346.557 205.023 345.381 206.362C344.237 207.701 343.029 209.139 341.755 210.674C340.481 212.177 339.223 213.679 337.982 215.182C336.74 216.652 335.597 218.024 334.552 219.298C333.506 220.539 332.657 221.585 332.004 222.434C331.35 223.283 330.975 223.806 330.877 224.002C331.171 223.839 331.742 223.414 332.592 222.728C333.474 222.042 334.486 221.209 335.63 220.229C336.806 219.216 338.014 218.155 339.256 217.044C340.497 215.933 341.657 214.855 342.735 213.81C343.813 212.765 344.695 211.883 345.381 211.164L345.969 210.38C346.393 210.543 346.851 210.772 347.341 211.066C347.863 211.327 348.304 211.621 348.664 211.948C349.056 212.242 349.252 212.552 349.252 212.879C349.252 212.977 349.203 213.108 349.105 213.271C347.504 215.525 346.197 217.371 345.185 218.808C344.172 220.213 343.584 221.078 343.421 221.405C343.813 221.209 344.368 220.882 345.087 220.425C345.805 219.935 346.622 219.412 347.537 218.857C348.582 218.204 349.66 217.534 350.771 216.848C351.914 216.162 353.041 215.59 354.152 215.133C354.413 215.035 354.413 215.084 354.152 215.28C353.923 215.476 353.596 215.721 353.172 216.015C352.747 216.276 352.388 216.489 352.094 216.652C352.616 216.391 353.057 216.195 353.417 216.064C353.809 215.901 354.315 215.688 354.936 215.427C355.23 215.296 355.475 215.231 355.671 215.231C355.899 215.231 355.932 215.345 355.769 215.574C355.605 215.803 355.344 216.08 354.985 216.407C354.658 216.701 354.331 216.946 354.005 217.142C353.613 217.371 352.894 217.861 351.849 218.612C350.803 219.363 349.627 220.229 348.321 221.209C347.047 222.156 345.838 223.087 344.695 224.002C344.139 224.427 343.617 224.868 343.127 225.325C342.637 225.782 342.196 226.207 341.804 226.599C341.934 226.632 342.065 226.713 342.196 226.844C342.359 226.975 342.441 227.122 342.441 227.285C342.441 227.514 342.245 227.791 341.853 228.118C341.461 228.412 341.036 228.673 340.579 228.902C340.121 229.131 339.778 229.245 339.55 229.245ZM343.078 222.434C343.502 222.075 344.188 221.585 345.136 220.964C346.116 220.311 347.161 219.625 348.272 218.906C349.415 218.187 350.411 217.583 351.261 217.093C350.542 217.42 349.758 217.828 348.909 218.318C348.059 218.775 347.357 219.184 346.802 219.543C345.985 220.066 345.299 220.507 344.744 220.866C344.188 221.193 343.731 221.536 343.372 221.895C343.274 221.96 343.176 222.091 343.078 222.287C342.98 222.45 342.98 222.499 343.078 222.434ZM355.003 229.392C354.545 229.392 354.055 229.294 353.533 229.098C353.043 228.935 352.602 228.673 352.21 228.314C351.818 227.955 351.393 227.416 350.936 226.697C350.511 225.946 350.299 225.211 350.299 224.492C350.299 224.198 350.348 223.937 350.446 223.708C351.491 220.899 353.19 218.334 355.542 216.015C357.894 213.663 360.768 211.687 364.166 210.086C364.623 210.086 365.097 210.266 365.587 210.625C366.077 210.952 366.485 211.36 366.812 211.85L367.694 212.144C367.661 211.785 367.547 211.572 367.351 211.507C367.155 211.409 367.057 211.278 367.057 211.115C367.122 210.821 367.334 210.658 367.694 210.625C368.053 210.56 368.314 210.527 368.478 210.527C369 210.527 369.425 210.772 369.752 211.262C370.111 211.719 370.307 212.226 370.34 212.781C371.124 212.879 371.94 212.944 372.79 212.977C373.639 213.01 374.374 213.042 374.995 213.075C375.648 213.075 376.007 213.075 376.073 213.075H376.22C376.318 213.075 376.367 213.14 376.367 213.271C376.367 213.5 376.236 213.696 375.975 213.859C375.648 214.12 374.88 214.3 373.672 214.398C372.496 214.463 371.254 214.496 369.948 214.496C369.784 214.986 369.539 215.509 369.213 216.064C368.886 216.619 368.51 217.191 368.086 217.779C367.792 218.204 367.351 218.775 366.763 219.494C366.175 220.18 365.57 220.882 364.95 221.601C364.329 222.32 363.806 222.924 363.382 223.414C363.676 223.153 364.149 222.695 364.803 222.042C365.489 221.356 366.044 220.752 366.469 220.229C366.632 220.033 366.877 219.723 367.204 219.298C367.53 218.841 367.841 218.416 368.135 218.024C368.461 217.599 368.657 217.322 368.723 217.191C368.298 218.073 367.759 218.922 367.106 219.739C366.452 220.556 365.799 221.291 365.146 221.944C364.492 222.597 363.937 223.136 363.48 223.561C363.022 223.953 362.761 224.182 362.696 224.247C361.324 225.684 359.935 226.909 358.531 227.922C357.159 228.902 355.983 229.392 355.003 229.392ZM353.435 227.726C353.598 227.726 353.794 227.677 354.023 227.579C354.382 227.383 354.839 227.073 355.395 226.648C355.983 226.223 356.587 225.782 357.208 225.325C357.763 224.868 358.384 224.312 359.07 223.659C359.756 222.973 360.507 222.173 361.324 221.258C362.042 220.441 362.81 219.559 363.627 218.612C364.443 217.632 365.244 216.619 366.028 215.574L365.293 216.26C365.521 216.031 365.799 215.721 366.126 215.329C366.485 214.904 366.779 214.578 367.008 214.349C365.995 214.284 365.391 214.235 365.195 214.202C365.162 214.267 365.113 214.3 365.048 214.3C364.982 214.3 364.95 214.186 364.95 213.957C364.95 213.892 364.95 213.81 364.95 213.712C364.95 213.581 364.966 213.451 364.999 213.32C364.672 213.287 364.313 213.336 363.921 213.467C363.529 213.598 363.088 213.875 362.598 214.3C362.042 214.823 361.324 215.476 360.442 216.26C359.56 217.044 358.645 217.942 357.698 218.955C356.75 219.935 355.852 220.997 355.003 222.14C354.186 223.283 353.533 224.492 353.043 225.766C352.879 226.158 352.798 226.55 352.798 226.942C352.798 227.497 353.043 227.661 353.533 227.432C353.369 227.53 353.288 227.595 353.288 227.628C353.288 227.693 353.337 227.726 353.435 227.726ZM353.533 227.432C354.153 227.105 355.133 226.419 356.473 225.374C357.845 224.296 359.233 222.989 360.638 221.454C361.095 220.964 361.618 220.409 362.206 219.788C362.794 219.135 363.365 218.514 363.921 217.926C364.476 217.338 364.901 216.881 365.195 216.554C364.443 217.469 363.741 218.302 363.088 219.053C362.467 219.772 361.863 220.458 361.275 221.111C359.903 222.581 358.498 223.904 357.061 225.08C355.656 226.256 354.48 227.04 353.533 227.432ZM365.255 244.092C365.026 244.092 364.765 244.01 364.471 243.847C364.144 243.684 363.883 243.471 363.687 243.21C363.033 242.295 362.707 241.119 362.707 239.682C362.707 238.767 363.05 237.51 363.736 235.909C364.389 234.341 365.271 232.577 366.382 230.617C367.492 228.69 368.717 226.713 370.057 224.688C371.396 222.663 372.719 220.752 374.026 218.955C375.365 217.158 376.59 215.623 377.701 214.349C377.047 214.97 376.361 215.688 375.643 216.505C374.957 217.322 374.32 218.073 373.732 218.759C373.176 219.445 372.784 219.935 372.556 220.229C372.523 220.262 372.507 220.245 372.507 220.18C372.539 220.082 372.621 219.919 372.752 219.69C372.752 219.657 372.931 219.429 373.291 219.004C373.65 218.547 374.091 217.991 374.614 217.338C375.169 216.685 375.724 216.031 376.28 215.378C376.868 214.725 377.407 214.169 377.897 213.712C377.799 213.549 377.701 213.385 377.603 213.222C377.537 213.059 377.505 212.912 377.505 212.781C377.505 212.487 377.733 212.34 378.191 212.34C378.419 212.34 378.615 212.356 378.779 212.389C379.236 212.454 379.742 212.732 380.298 213.222C380.886 213.712 381.212 214.137 381.278 214.496C381.082 214.79 380.837 215.084 380.543 215.378C380.281 215.672 379.987 215.999 379.661 216.358C380.347 215.901 381.131 215.345 382.013 214.692C382.895 214.039 383.793 213.385 384.708 212.732C385.655 212.079 386.504 211.54 387.256 211.115C388.04 210.658 388.644 210.429 389.069 210.429C389.983 210.429 390.62 210.69 390.98 211.213C391.339 211.736 391.519 212.356 391.519 213.075C391.519 213.598 391.437 214.137 391.274 214.692C391.11 215.247 390.898 215.721 390.637 216.113C390.571 216.211 390.343 216.57 389.951 217.191C389.591 217.779 389.167 218.4 388.677 219.053C388.219 219.674 387.827 220.115 387.501 220.376C388.056 219.494 388.513 218.71 388.873 218.024C389.232 217.305 389.33 216.946 389.167 216.946C388.35 218.449 387.664 219.625 387.109 220.474C386.586 221.323 386.145 221.96 385.786 222.385C385.459 222.81 385.165 223.202 384.904 223.561C383.597 225.26 382.16 226.73 380.592 227.971C379.024 229.212 377.439 229.833 375.839 229.833C375.12 229.833 374.45 229.702 373.83 229.441C373.242 229.18 372.735 228.951 372.311 228.755C371.919 228.559 371.625 228.347 371.429 228.118C370.743 229.229 370.024 230.454 369.273 231.793C368.521 233.132 367.819 234.455 367.166 235.762C366.512 237.069 365.973 238.245 365.549 239.29C365.124 240.335 364.895 241.119 364.863 241.642C364.863 242.197 365.042 242.687 365.402 243.112C365.63 243.373 365.745 243.586 365.745 243.749C365.745 243.978 365.581 244.092 365.255 244.092ZM374.467 228.118C374.826 227.955 375.365 227.628 376.084 227.138C376.835 226.648 377.488 226.142 378.044 225.619C378.468 225.227 379.04 224.672 379.759 223.953C380.477 223.202 381.245 222.369 382.062 221.454C382.878 220.507 383.662 219.527 384.414 218.514C385.165 217.469 385.769 216.44 386.227 215.427C386.096 215.656 385.884 215.95 385.59 216.309C385.296 216.668 384.985 217.044 384.659 217.436C384.985 217.011 385.263 216.619 385.492 216.26C385.72 215.868 385.9 215.558 386.031 215.329C386.325 214.806 386.553 214.333 386.717 213.908C386.913 213.483 386.994 213.157 386.962 212.928C386.831 212.993 386.668 213.075 386.472 213.173C386.308 213.271 386.129 213.402 385.933 213.565C384.659 214.447 383.254 215.492 381.719 216.701C380.216 217.91 378.746 219.2 377.309 220.572C375.904 221.911 374.695 223.251 373.683 224.59C373.487 224.819 373.258 225.145 372.997 225.57C372.735 225.995 372.425 226.485 372.066 227.04C372.392 227.432 372.735 227.628 373.095 227.628C374.63 227.628 376.361 226.73 378.289 224.933L378.338 224.884L378.534 224.688C378.534 224.688 378.517 224.704 378.485 224.737C378.485 224.737 378.436 224.786 378.338 224.884C378.305 224.884 378.289 224.9 378.289 224.933C377.505 225.652 376.737 226.256 375.986 226.746C375.234 227.236 374.467 227.595 373.683 227.824C373.585 227.857 373.536 227.906 373.536 227.971C373.536 228.036 373.634 228.102 373.83 228.167C374.058 228.232 374.271 228.216 374.467 228.118ZM384.414 217.73L384.463 217.681L384.512 217.632V217.583H384.561L384.61 217.534V217.485H384.659V217.436C384.659 217.436 384.659 217.452 384.659 217.485C384.659 217.485 384.642 217.485 384.61 217.485C384.61 217.485 384.61 217.501 384.61 217.534C384.577 217.534 384.561 217.55 384.561 217.583C384.561 217.583 384.544 217.583 384.512 217.583C384.512 217.616 384.512 217.632 384.512 217.632C384.479 217.665 384.463 217.681 384.463 217.681C384.43 217.714 384.414 217.73 384.414 217.73ZM378.828 224.394C379.089 224.133 379.334 223.839 379.563 223.512C379.824 223.153 380.085 222.826 380.347 222.532C380.706 222.14 381.229 221.568 381.915 220.817C382.601 220.033 383.27 219.233 383.924 218.416C383.205 219.331 382.405 220.327 381.523 221.405C380.641 222.45 379.742 223.447 378.828 224.394Z" fill="#FEF3F3"/>
<path d="M30.592 176.096C29.2267 176.096 27.776 175.84 26.24 175.328C24.704 174.901 23.4667 174.133 22.528 173.024C21.5893 171.915 21.2907 170.549 21.632 168.928C21.9733 167.307 23.168 165.685 25.216 164.064C27.264 162.357 29.7813 160.693 32.768 159.072C35.7547 157.451 38.8267 156 41.984 154.72C45.2267 153.44 48.256 152.416 51.072 151.648C53.9733 150.795 56.2347 150.325 57.856 150.24C58.112 150.24 58.24 150.325 58.24 150.496C58.24 150.837 57.984 151.264 57.472 151.776C56.96 152.288 56.4907 152.629 56.064 152.8C54.1867 153.312 51.7547 154.165 48.768 155.36C45.8667 156.469 42.9227 157.749 39.936 159.2C37.0347 160.651 34.4747 162.144 32.256 163.68C30.976 164.533 30.08 165.259 29.568 165.856C29.056 166.368 28.8 166.795 28.8 167.136C28.8 167.563 29.1413 167.819 29.824 167.904C30.592 167.989 31.1893 168.032 31.616 168.032C34.432 167.861 37.5893 167.264 41.088 166.24C44.5867 165.131 47.9573 163.68 51.2 161.888C54.528 160.096 57.344 158.133 59.648 156C61.952 153.781 63.3173 151.563 63.744 149.344C64 148.149 62.9333 147.253 60.544 146.656C58.24 146.059 54.9547 145.76 50.688 145.76C49.7493 145.76 48.768 145.76 47.744 145.76C46.72 145.76 45.6533 145.803 44.544 145.888C43.776 145.632 43.392 145.12 43.392 144.352C43.392 142.901 44.0747 142.091 45.44 141.92C51.4987 140.128 57.5147 137.867 63.488 135.136C69.4613 132.32 75.136 129.291 80.512 126.048C85.9733 122.805 90.8373 119.605 95.104 116.448C99.3707 113.291 102.741 110.475 105.216 108C105.728 107.488 106.155 106.976 106.496 106.464C106.837 105.867 107.008 105.269 107.008 104.672C107.008 103.563 106.283 102.581 104.832 101.728C102.528 100.363 99.456 99.3387 95.616 98.656C91.8613 97.888 88.0213 97.504 84.096 97.504C77.3547 97.504 70.0587 98.4427 62.208 100.32C54.3573 102.197 46.6347 104.843 39.04 108.256C31.4453 111.669 24.576 115.723 18.432 120.416C16.384 122.037 14.5493 123.829 12.928 125.792C11.392 127.755 10.368 129.973 9.856 132.448C9.51467 133.984 9.77067 135.307 10.624 136.416C11.4773 137.525 11.8187 138.507 11.648 139.36C11.648 139.787 11.4347 140 11.008 140C10.4107 140 9.68533 139.744 8.832 139.232C7.46667 138.123 6.10133 136.672 4.736 134.88C3.37067 133.003 2.688 130.869 2.688 128.48C2.688 124.469 4.90667 120.373 9.344 116.192C13.8667 111.925 19.6267 107.957 26.624 104.288C24.4907 105.227 22.3147 106.251 20.096 107.36C17.8773 108.384 15.616 109.493 13.312 110.688C13.2267 110.773 13.1413 110.816 13.056 110.816C12.9707 110.816 12.928 110.816 12.928 110.816C12.7573 110.816 12.8853 110.645 13.312 110.304C13.824 109.963 14.2933 109.664 14.72 109.408C19.4133 106.763 24.1067 104.459 28.8 102.496C33.4933 100.448 38.1013 98.6987 42.624 97.248C42.7947 97.1627 42.9227 97.12 43.008 97.12L42.624 97.248C39.7227 98.1867 36.9493 99.296 34.304 100.576C31.6587 101.771 29.0987 103.008 26.624 104.288C37.9733 99.2533 48.512 95.7547 58.24 93.792C67.968 91.8293 77.7387 90.8053 87.552 90.72C88.2347 90.72 88.704 90.72 88.96 90.72C89.216 90.6347 89.344 90.592 89.344 90.592C89.344 90.4213 89.0027 90.2933 88.32 90.208C87.6373 90.1227 86.9547 90.08 86.272 90.08C80.5547 89.9947 74.24 90.4213 67.328 91.36C60.5013 92.2133 53.376 93.792 45.952 96.096C51.584 94.304 57.3867 92.8107 63.36 91.616C69.3333 90.336 75.1787 89.5253 80.896 89.184C81.664 89.0987 82.432 89.056 83.2 89.056C84.0533 89.056 84.864 89.056 85.632 89.056C90.0693 89.056 94.2507 89.4827 98.176 90.336C102.101 91.1893 105.301 92.7253 107.776 94.944C110.336 97.0773 111.616 100.107 111.616 104.032C113.067 105.995 113.792 107.829 113.792 109.536C113.792 111.584 112.768 113.76 110.72 116.064L110.976 115.68C110.123 116.448 108.629 117.6 106.496 119.136C104.363 120.587 102.059 122.165 99.584 123.872C97.1093 125.579 94.848 127.072 92.8 128.352C90.752 129.632 89.344 130.485 88.576 130.912L80.896 134.88C82.432 134.283 83.968 133.685 85.504 133.088C87.1253 132.491 88.6613 131.851 90.112 131.168L88.064 132.32C86.9547 132.917 85.4613 133.643 83.584 134.496C81.792 135.264 79.9147 136.032 77.952 136.8C75.9893 137.568 74.1973 138.208 72.576 138.72C70.9547 139.232 69.76 139.531 68.992 139.616C68.8213 139.616 69.0773 139.488 69.76 139.232C70.528 138.891 71.424 138.549 72.448 138.208C73.5573 137.867 74.496 137.568 75.264 137.312C75.8613 137.141 76.6293 136.885 77.568 136.544C78.5067 136.117 79.5307 135.605 80.64 135.008C76.544 136.544 72.3627 137.909 68.096 139.104C63.9147 140.299 59.8187 141.408 55.808 142.432C57.344 142.432 59.0933 142.688 61.056 143.2C63.0187 143.627 64.9387 144.309 66.816 145.248C68.6933 146.187 70.2293 147.339 71.424 148.704C72.6187 149.984 73.216 151.52 73.216 153.312C73.216 153.824 73.1733 154.251 73.088 154.592C72.6613 156.725 71.0827 159.029 68.352 161.504C65.7067 163.893 62.336 166.197 58.24 168.416C54.144 170.549 49.664 172.299 44.8 173.664C40.0213 175.115 35.2853 175.925 30.592 176.096ZM43.008 97.12C43.0933 97.12 43.136 97.0773 43.136 96.992C43.2213 96.992 43.264 96.992 43.264 96.992C43.3493 96.992 43.392 96.992 43.392 96.992C43.4773 96.9067 43.5627 96.864 43.648 96.864C43.648 96.864 43.6907 96.864 43.776 96.864C43.776 96.864 43.8187 96.8213 43.904 96.736C44.0747 96.736 44.16 96.736 44.16 96.736L44.288 96.608H44.416H44.544L44.8 96.48C44.7147 96.48 44.6293 96.5227 44.544 96.608C44.544 96.608 44.5013 96.608 44.416 96.608C44.416 96.608 44.3733 96.608 44.288 96.608C44.2027 96.6933 44.16 96.736 44.16 96.736C44.16 96.736 44.0747 96.736 43.904 96.736L43.776 96.864H43.648L43.392 96.992H43.264H43.136L43.008 97.12ZM7.168 183.008C5.54667 181.643 4.352 180.277 3.584 178.912C2.90133 177.632 2.56 176.395 2.56 175.2C2.56 174.517 2.688 173.792 2.944 173.024C3.62667 171.061 4.992 168.501 7.04 165.344C9.17333 162.101 11.7333 158.517 14.72 154.592C17.792 150.667 21.0347 146.613 24.448 142.432C27.9467 138.251 31.36 134.197 34.688 130.272C38.016 126.261 41.0453 122.677 43.776 119.52C46.592 116.277 48.8107 113.675 50.432 111.712C49.7493 112.053 49.1947 112.224 48.768 112.224C48.4267 112.224 48.256 112.096 48.256 111.84C48.256 111.499 48.512 111.072 49.024 110.56C49.9627 109.365 50.7733 108.384 51.456 107.616C52.1387 106.763 52.48 106.336 52.48 106.336C52.992 106.165 53.8453 106.379 55.04 106.976C56.32 107.488 57.6427 108.213 59.008 109.152C60.3733 110.005 61.4827 110.944 62.336 111.968C63.2747 112.907 63.5733 113.717 63.232 114.4C60.3307 117.216 57.0453 120.501 53.376 124.256C49.7067 128.011 45.8667 132.064 41.856 136.416C37.8453 140.768 33.8773 145.248 29.952 149.856C26.0267 154.379 22.3573 158.859 18.944 163.296C15.5307 167.648 12.5867 171.744 10.112 175.584C10.2827 175.328 10.496 175.072 10.752 174.816C11.008 174.56 11.3067 174.261 11.648 173.92L22.528 160.992C23.808 159.627 24.5333 158.944 24.704 158.944C24.7893 158.944 24.832 158.987 24.832 159.072C24.832 159.328 24.576 159.712 24.064 160.224C22.1867 162.528 20.1387 165.045 17.92 167.776C15.7867 170.421 13.7387 173.067 11.776 175.712C9.81333 178.357 8.27733 180.789 7.168 183.008ZM106.88 119.776C107.563 119.093 108.245 118.453 108.928 117.856C109.611 117.259 110.208 116.661 110.72 116.064C110.379 116.491 109.867 117.045 109.184 117.728C108.587 118.325 107.819 119.008 106.88 119.776ZM91.52 130.4C94.336 128.779 97.024 127.072 99.584 125.28C102.229 123.488 104.448 121.824 106.24 120.288L106.88 119.776C106.88 119.776 106.837 119.819 106.752 119.904C106.752 119.904 106.581 120.032 106.24 120.288L102.656 123.36C101.035 124.725 99.2853 125.963 97.408 127.072C95.5307 128.181 93.568 129.291 91.52 130.4ZM96.347 174.176C95.835 174.176 95.0243 173.579 93.915 172.384C92.891 171.275 91.8243 170.037 90.715 168.672C89.691 167.221 88.923 166.155 88.411 165.472C89.179 162.144 90.5017 158.688 92.379 155.104C94.3417 151.435 96.603 147.851 99.163 144.352C101.723 140.853 104.283 137.611 106.843 134.624C109.488 131.637 111.792 129.12 113.755 127.072C112.304 128.181 110.768 129.632 109.147 131.424C107.526 133.131 106.416 134.283 105.819 134.88C104.795 135.904 103.771 136.928 102.747 137.952C101.723 138.891 100.784 139.829 99.931 140.768C102.491 137.611 105.008 134.709 107.483 132.064C110.043 129.419 111.878 127.669 112.987 126.816C113.243 126.56 113.584 126.261 114.011 125.92C114.523 125.579 115.078 125.365 115.675 125.28L116.699 124.128C119.003 124.213 121.478 124.939 124.123 126.304C126.768 127.584 129.03 129.291 130.907 131.424C132.87 133.472 133.894 135.819 133.979 138.464C133.979 138.805 133.808 139.147 133.467 139.488C133.126 139.744 132.87 139.573 132.699 138.976C132.102 137.696 131.419 136.544 130.651 135.52C129.883 134.496 129.03 133.685 128.091 133.088C127.238 132.576 126.342 132.32 125.403 132.32C124.379 132.32 123.44 132.661 122.587 133.344C120.88 134.624 118.832 136.544 116.443 139.104C114.139 141.579 111.792 144.267 109.403 147.168C107.099 150.069 105.008 152.885 103.131 155.616C101.339 158.347 100.102 160.608 99.419 162.4C99.931 161.803 100.827 160.949 102.107 159.84C103.387 158.731 104.752 157.621 106.203 156.512C107.654 155.317 108.891 154.336 109.915 153.568C110.256 153.312 110.982 152.8 112.091 152.032C113.2 151.264 114.352 150.453 115.547 149.6C116.827 148.747 117.851 148.107 118.619 147.68C118.619 147.851 118.107 148.32 117.083 149.088C116.144 149.856 114.992 150.709 113.627 151.648C112.262 152.587 110.982 153.44 109.787 154.208C108.678 154.976 107.995 155.488 107.739 155.744C106.8 156.597 105.691 157.579 104.411 158.688C103.216 159.797 102.107 160.821 101.083 161.76C100.059 162.699 99.3763 163.381 99.035 163.808C98.8643 164.149 98.8217 164.363 98.907 164.448C98.9923 164.533 99.163 164.405 99.419 164.064C100.187 162.955 101.339 161.76 102.875 160.48C104.411 159.2 106.075 157.92 107.867 156.64C109.744 155.275 111.408 154.037 112.859 152.928C114.566 151.648 116.102 150.539 117.467 149.6C118.918 148.576 120.198 147.637 121.307 146.784C121.392 144.992 122.032 143.755 123.227 143.072C124.507 142.389 125.488 142.176 126.171 142.432C126.683 142.603 127.451 142.944 128.475 143.456C129.584 143.883 130.566 144.437 131.419 145.12C132.272 145.717 132.528 146.4 132.187 147.168C131.59 148.533 131.12 150.667 130.779 153.568C130.523 156.384 130.395 158.987 130.395 161.376C130.395 164.789 131.462 166.496 133.595 166.496C134.704 166.496 136.198 165.899 138.075 164.704C138.758 164.277 139.27 164.064 139.611 164.064C139.867 164.064 139.995 164.192 139.995 164.448C139.995 164.789 139.782 165.301 139.355 165.984C138.928 166.581 138.63 166.965 138.459 167.136C137.435 168.245 136.198 169.269 134.747 170.208C133.382 171.061 131.974 171.488 130.523 171.488C129.926 171.488 129.328 171.403 128.731 171.232C128.134 171.061 127.536 170.763 126.939 170.336C124.806 168.885 123.27 166.667 122.331 163.68C121.478 160.693 121.051 158.133 121.051 156C121.051 155.488 121.051 155.019 121.051 154.592C121.136 154.165 121.222 153.781 121.307 153.44C120.368 154.208 118.79 155.531 116.571 157.408C114.438 159.2 112.048 161.248 109.403 163.552C106.758 165.771 104.24 167.861 101.851 169.824C99.4617 171.787 97.627 173.237 96.347 174.176ZM143.736 172C142.285 171.829 141.133 171.019 140.28 169.568C139.427 168.032 139 166.581 139 165.216C139 164.107 139.597 162.357 140.792 159.968C142.072 157.579 143.651 154.891 145.528 151.904C147.491 148.832 149.496 145.845 151.544 142.944C153.677 139.957 155.555 137.312 157.176 135.008C158.883 132.704 160.077 131.083 160.76 130.144C159.651 131.168 158.627 132.192 157.688 133.216C156.749 134.24 156.195 134.752 156.024 134.752C155.939 134.752 156.365 133.984 157.304 132.448C158.328 130.827 160.291 127.925 163.192 123.744C164.045 123.744 165.069 124.213 166.264 125.152C167.459 126.091 168.525 127.157 169.464 128.352C170.403 129.547 170.872 130.571 170.872 131.424C169.933 132.96 168.44 134.923 166.392 137.312C164.429 139.616 162.339 142.005 160.12 144.48C157.987 146.955 156.067 149.216 154.36 151.264C154.616 151.008 155.64 150.112 157.432 148.576C159.309 147.04 161.613 145.12 164.344 142.816C167.075 140.512 169.976 138.08 173.048 135.52C176.205 132.96 179.192 130.571 182.008 128.352C184.824 126.048 187.213 124.213 189.176 122.848C191.224 121.397 192.504 120.672 193.016 120.672C193.528 120.672 194.253 121.184 195.192 122.208C196.216 123.147 197.155 124.213 198.008 125.408C198.861 126.603 199.288 127.584 199.288 128.352C199.288 128.437 198.648 129.163 197.368 130.528C196.173 131.893 194.637 133.643 192.76 135.776C190.968 137.824 189.176 140 187.384 142.304C185.592 144.523 184.056 146.613 182.776 148.576C181.581 150.539 181.027 151.989 181.112 152.928C180.259 152.757 179.533 151.989 178.936 150.624C178.339 149.173 178.04 147.552 178.04 145.76C178.04 144.736 178.339 143.499 178.936 142.048C179.619 140.597 180.344 139.189 181.112 137.824C181.965 136.459 182.691 135.264 183.288 134.24C183.971 133.216 184.312 132.661 184.312 132.576C183.8 133.173 183.075 134.155 182.136 135.52C181.283 136.885 180.429 138.251 179.576 139.616C178.808 140.896 178.296 141.835 178.04 142.432C178.296 141.408 179.021 139.744 180.216 137.44C181.411 135.136 182.989 132.832 184.952 130.528C184.013 131.381 182.392 132.832 180.088 134.88C177.869 136.843 175.309 139.189 172.408 141.92C169.507 144.651 166.477 147.509 163.32 150.496C160.248 153.397 157.304 156.256 154.488 159.072C151.672 161.888 149.283 164.448 147.32 166.752C145.443 168.971 144.248 170.72 143.736 172ZM194.008 175.2C192.387 175.2 190.851 175.029 189.4 174.688C187.779 174.688 186.328 174.517 185.048 174.176C183.853 173.835 183.256 172.341 183.256 169.696C183.256 168.672 183.427 167.776 183.768 167.008C183.427 166.325 183.256 165.472 183.256 164.448C183.256 162.485 183.981 160.565 185.432 158.688C187.651 155.189 190.509 151.051 194.008 146.272C197.507 141.493 201.347 136.501 205.528 131.296C209.709 126.005 213.848 121.013 217.944 116.32C221.357 112.395 223.789 109.493 225.24 107.616C226.776 105.739 227.544 104.501 227.544 103.904C227.203 103.563 226.947 103.179 226.776 102.752C226.691 102.325 226.648 101.941 226.648 101.6C226.648 101.088 226.691 100.661 226.776 100.32C226.861 99.8933 226.904 99.5947 226.904 99.424V98.4C226.904 97.888 226.947 97.4613 227.032 97.12C227.203 96.6933 227.587 96.48 228.184 96.48C228.355 96.48 228.525 96.5227 228.696 96.608C228.952 96.608 229.208 96.6507 229.464 96.736C230.573 97.0773 231.981 97.76 233.688 98.784C235.48 99.808 237.016 100.96 238.296 102.24C239.576 103.52 239.96 104.843 239.448 106.208C239.448 107.061 239.021 107.957 238.168 108.896C237.315 109.835 235.821 111.285 233.688 113.248C231.555 115.125 228.568 117.984 224.728 121.824C219.267 127.285 214.275 132.619 209.752 137.824C205.229 142.944 200.536 148.533 195.672 154.592C196.525 153.739 198.104 152.203 200.408 149.984C202.712 147.68 205.357 145.12 208.344 142.304C211.416 139.488 214.531 136.757 217.688 134.112C220.931 131.467 223.875 129.248 226.52 127.456C229.251 125.579 231.427 124.512 233.048 124.256C234.755 124.256 236.12 124.555 237.144 125.152C238.168 125.749 238.723 126.901 238.808 128.608C239.832 129.376 240.344 130.485 240.344 131.936C240.344 133.557 239.789 135.435 238.68 137.568C237.656 139.701 236.333 141.792 234.712 143.84C233.091 145.803 231.512 147.467 229.976 148.832C229.891 148.917 230.232 148.491 231 147.552C231.768 146.613 232.664 145.461 233.688 144.096C234.712 142.731 235.651 141.323 236.504 139.872C237.357 138.421 237.827 137.227 237.912 136.288C237.229 137.653 236.205 139.36 234.84 141.408C233.56 143.456 232.237 145.376 230.872 147.168C229.592 148.96 228.611 150.24 227.928 151.008C225.539 153.653 223.107 155.957 220.632 157.92C218.157 159.797 216.195 161.632 214.744 163.424C215.683 162.741 216.92 161.803 218.456 160.608C219.992 159.328 221.613 157.963 223.32 156.512C225.027 154.976 226.563 153.525 227.928 152.16C227.843 152.501 227.245 153.227 226.136 154.336C225.027 155.36 223.661 156.597 222.04 158.048C220.504 159.413 218.925 160.779 217.304 162.144C215.768 163.424 214.445 164.533 213.336 165.472C212.227 166.325 211.587 166.709 211.416 166.624C208.344 169.099 205.485 171.147 202.84 172.768C200.195 174.389 197.251 175.2 194.008 175.2ZM187.352 170.08C189.571 169.995 192.003 169.483 194.648 168.544C197.379 167.52 199.939 166.283 202.328 164.832C204.717 163.381 206.595 161.973 207.96 160.608C210.861 157.707 213.763 154.379 216.664 150.624C219.565 146.869 222.168 143.157 224.472 139.488C226.776 135.819 228.397 132.661 229.336 130.016C228.056 130.613 226.563 131.424 224.856 132.448C223.235 133.387 221.656 134.368 220.12 135.392C218.669 136.416 217.517 137.227 216.664 137.824C213.507 140.043 210.477 142.56 207.576 145.376C204.76 148.192 202.157 150.965 199.768 153.696C197.464 156.427 195.544 158.859 194.008 160.992C192.557 163.04 191.661 164.533 191.32 165.472C191.149 166.069 190.979 166.752 190.808 167.52C190.723 168.203 190.125 168.544 189.016 168.544C188.248 168.544 187.395 168.373 186.456 168.032C186.2 167.947 185.944 167.861 185.688 167.776C185.517 167.605 185.304 167.477 185.048 167.392C185.304 168.075 185.603 168.715 185.944 169.312C186.371 169.824 186.84 170.08 187.352 170.08ZM251.61 172.896C249.733 172.896 247.727 172.171 245.594 170.72C243.461 169.269 241.626 167.563 240.09 165.6C238.639 163.637 237.914 161.845 237.914 160.224C237.914 157.152 238.81 153.867 240.602 150.368C242.479 146.784 244.869 143.285 247.77 139.872C250.757 136.459 253.914 133.429 257.242 130.784C260.57 128.139 263.77 126.219 266.842 125.024C267.695 124.683 268.463 124.469 269.146 124.384C269.829 124.299 270.341 124.256 270.682 124.256C271.706 124.256 272.901 124.981 274.266 126.432C275.631 127.797 276.869 129.291 277.978 130.912C279.087 132.533 279.727 133.771 279.898 134.624C279.898 135.989 279.087 137.653 277.466 139.616C275.93 141.493 273.882 143.456 271.322 145.504C268.762 147.467 265.989 149.301 263.002 151.008C260.101 152.715 257.285 154.08 254.554 155.104C251.823 156.043 249.477 156.469 247.514 156.384C246.149 158.859 245.466 160.907 245.466 162.528C245.466 163.381 245.679 164.149 246.106 164.832C246.533 165.429 247.386 165.685 248.666 165.6C250.714 164.917 253.274 163.68 256.346 161.888C259.418 160.096 262.703 158.091 266.202 155.872C269.786 153.568 273.285 151.349 276.698 149.216C280.197 146.997 283.311 145.163 286.042 143.712C287.493 142.944 288.559 142.56 289.242 142.56C289.839 142.56 290.138 142.773 290.138 143.2C290.138 143.541 289.754 144.096 288.986 144.864C288.303 145.632 287.237 146.4 285.786 147.168C285.018 147.595 284.165 148.107 283.226 148.704C282.287 149.301 281.306 149.984 280.282 150.752C277.893 152.459 275.333 154.421 272.602 156.64C269.957 158.859 267.269 161.077 264.538 163.296C261.893 165.515 259.418 167.477 257.114 169.184C254.895 170.891 253.061 172.128 251.61 172.896ZM250.202 152.16C252.762 151.221 255.493 149.899 258.394 148.192C261.295 146.485 264.026 144.693 266.586 142.816C269.146 140.853 271.194 139.104 272.73 137.568L273.37 136.928C273.37 136.757 272.858 137.056 271.834 137.824L261.082 145.76C260.997 145.845 260.869 145.888 260.698 145.888C260.613 145.888 260.655 145.803 260.826 145.632C260.997 145.376 261.295 145.12 261.722 144.864C263.429 143.669 265.178 142.347 266.97 140.896C268.762 139.36 270.469 137.909 272.09 136.544C274.138 134.923 275.162 133.941 275.162 133.6C273.199 133.6 270.682 134.539 267.61 136.416C264.538 138.293 261.423 140.64 258.266 143.456C255.194 146.272 252.506 149.173 250.202 152.16ZM279.236 172C277.785 171.829 276.633 171.019 275.78 169.568C274.927 168.032 274.5 166.581 274.5 165.216C274.5 164.107 275.183 162.315 276.548 159.84C277.913 157.28 279.62 154.421 281.668 151.264C283.801 148.021 285.977 144.821 288.196 141.664C290.5 138.507 292.548 135.733 294.34 133.344C296.132 130.869 297.369 129.163 298.052 128.224C295.919 130.613 294.169 132.619 292.804 134.24C291.524 135.776 290.799 136.544 290.628 136.544C290.543 136.544 291.225 135.435 292.676 133.216C294.212 130.997 296.815 127.2 300.484 121.824C301.337 121.824 302.404 122.208 303.684 122.976C304.964 123.744 306.116 124.64 307.14 125.664C308.249 126.603 308.804 127.499 308.804 128.352C308.036 129.547 306.884 131.125 305.348 133.088C303.812 135.051 302.063 137.141 300.1 139.36C298.137 141.579 296.26 143.755 294.468 145.888C292.676 147.936 291.14 149.728 289.86 151.264C290.116 151.008 291.097 150.197 292.804 148.832C294.511 147.467 296.644 145.76 299.204 143.712C301.764 141.579 304.452 139.403 307.268 137.184C310.169 134.88 312.943 132.747 315.588 130.784C318.233 128.736 320.495 127.072 322.372 125.792C324.249 124.512 325.444 123.872 325.956 123.872C326.383 123.872 326.98 124.213 327.748 124.896C328.516 125.579 329.284 126.432 330.052 127.456C330.905 128.395 331.545 129.333 331.972 130.272C332.399 131.125 332.441 131.723 332.1 132.064C331.588 132.576 330.351 133.856 328.388 135.904C326.511 137.952 324.292 140.384 321.732 143.2C319.257 146.016 316.868 148.832 314.564 151.648C312.345 154.379 310.639 156.725 309.444 158.688L318.404 153.056C319.087 152.629 319.087 152.672 318.404 153.184C317.721 153.696 316.868 154.336 315.844 155.104C314.82 155.872 314.052 156.469 313.54 156.896C313.284 157.152 312.985 157.579 312.644 158.176C312.303 158.688 312.26 158.816 312.516 158.56C313.796 157.451 315.417 156.213 317.38 154.848C319.343 153.483 321.391 152.117 323.524 150.752C325.743 149.301 327.705 148.021 329.412 146.912C327.876 147.68 326.383 148.448 324.932 149.216C323.481 149.984 321.945 150.88 320.324 151.904L322.116 150.624C322.884 150.027 323.993 149.301 325.444 148.448C326.895 147.595 328.345 146.784 329.796 146.016C331.332 145.248 332.484 144.736 333.252 144.48L329.54 146.912C330.479 146.485 331.46 146.059 332.484 145.632C333.508 145.12 334.575 144.608 335.684 144.096C336.367 143.84 336.836 143.712 337.092 143.712C337.86 143.712 337.903 144.181 337.22 145.12C336.623 146.059 335.727 146.869 334.532 147.552C332.655 148.491 330.436 149.941 327.876 151.904C325.316 153.867 322.628 156.043 319.812 158.432C317.081 160.821 314.436 163.211 311.876 165.6C309.316 167.904 307.14 169.952 305.348 171.744C303.556 170.293 302.617 168.843 302.532 167.392C302.447 165.941 302.404 164.661 302.404 163.552V163.04C302.404 162.784 302.404 162.485 302.404 162.144C302.489 161.717 302.66 161.248 302.916 160.736C302.831 160.309 302.489 160.011 301.892 159.84C301.295 159.584 301.039 159.285 301.124 158.944C301.465 157.323 302.276 155.445 303.556 153.312C304.836 151.179 306.287 148.96 307.908 146.656C309.615 144.352 311.321 142.133 313.028 140C314.735 137.867 316.185 136.032 317.38 134.496C318.575 132.96 319.343 131.893 319.684 131.296C318.745 132.149 317.167 133.6 314.948 135.648C312.729 137.611 310.169 139.915 307.268 142.56C304.452 145.12 301.508 147.851 298.436 150.752C295.364 153.653 292.463 156.512 289.732 159.328C287.001 162.059 284.697 164.533 282.82 166.752C280.943 168.971 279.748 170.72 279.236 172ZM356.458 176.096C355.093 176.096 353.685 175.84 352.234 175.328C350.783 174.816 349.589 174.005 348.65 172.896C347.797 171.872 347.541 170.549 347.882 168.928C348.223 167.307 349.418 165.685 351.466 164.064C353.514 162.357 356.031 160.693 359.018 159.072C362.005 157.451 365.077 156 368.234 154.72C371.477 153.44 374.506 152.416 377.322 151.648C380.223 150.795 382.485 150.325 384.106 150.24C384.362 150.24 384.49 150.325 384.49 150.496C384.49 150.837 384.234 151.264 383.722 151.776C383.21 152.288 382.741 152.629 382.314 152.8C380.437 153.312 378.005 154.165 375.018 155.36C372.117 156.469 369.173 157.749 366.186 159.2C363.285 160.651 360.725 162.144 358.506 163.68C357.226 164.533 356.33 165.259 355.818 165.856C355.306 166.368 355.05 166.795 355.05 167.136C355.05 167.563 355.391 167.819 356.074 167.904C356.842 167.989 357.439 168.032 357.866 168.032C364.437 167.776 370.794 166.24 376.938 163.424C383.082 160.608 388.885 156.981 394.346 152.544C399.893 148.107 404.927 143.371 409.45 138.336C413.973 133.301 417.898 128.352 421.226 123.488C424.554 118.624 427.114 114.357 428.906 110.688C430.698 107.019 431.594 104.416 431.594 102.88C431.594 102.283 431.423 101.899 431.082 101.728C428.778 100.363 425.706 99.3387 421.866 98.656C418.111 97.888 414.271 97.504 410.346 97.504C403.605 97.504 396.309 98.4427 388.458 100.32C380.607 102.197 372.885 104.843 365.29 108.256C357.695 111.669 350.826 115.723 344.682 120.416C342.634 122.037 340.799 123.829 339.178 125.792C337.642 127.755 336.618 129.973 336.106 132.448C335.765 133.984 336.021 135.307 336.874 136.416C337.727 137.525 338.069 138.507 337.898 139.36C337.898 139.787 337.685 140 337.258 140C336.661 140 335.935 139.744 335.082 139.232C333.717 138.123 332.351 136.672 330.986 134.88C329.621 133.003 328.938 130.869 328.938 128.48C328.938 124.555 331.157 120.459 335.594 116.192C340.117 111.925 345.877 107.957 352.874 104.288C350.741 105.227 348.565 106.251 346.346 107.36C344.127 108.384 341.866 109.493 339.562 110.688C339.477 110.773 339.391 110.816 339.306 110.816C339.221 110.816 339.178 110.816 339.178 110.816C339.007 110.816 339.135 110.645 339.562 110.304C340.074 109.963 340.543 109.664 340.97 109.408C346.005 106.592 351.039 104.16 356.074 102.112C361.109 99.9787 366.058 98.1013 370.922 96.48C367.679 97.5893 364.522 98.8267 361.45 100.192C358.463 101.472 355.605 102.837 352.874 104.288C364.223 99.2533 374.762 95.7547 384.49 93.792C394.218 91.8293 403.989 90.8053 413.802 90.72C414.485 90.72 414.954 90.72 415.21 90.72C415.466 90.6347 415.594 90.592 415.594 90.592C415.594 90.4213 415.253 90.2933 414.57 90.208C413.887 90.1227 413.205 90.08 412.522 90.08C406.89 89.9947 400.618 90.4213 393.706 91.36C386.879 92.2133 379.754 93.7493 372.33 95.968C378.047 94.176 383.85 92.6827 389.738 91.488C395.626 90.2933 401.429 89.5253 407.146 89.184C407.914 89.0987 408.682 89.056 409.45 89.056C410.303 89.056 411.114 89.056 411.882 89.056C416.319 89.056 420.501 89.4827 424.426 90.336C428.351 91.1893 431.551 92.7253 434.026 94.944C436.586 97.0773 437.866 100.107 437.866 104.032C439.317 105.824 440.042 108.128 440.042 110.944C440.042 114.016 439.103 117.515 437.226 121.44C435.349 125.28 432.746 129.291 429.418 133.472C426.175 137.653 422.335 141.792 417.898 145.888C422.165 141.792 425.919 137.525 429.162 133.088C432.49 128.651 435.519 123.445 438.25 117.472C435.946 122.165 433.13 126.603 429.802 130.784C426.474 134.88 423.103 138.592 419.69 141.92C416.362 145.163 413.333 147.936 410.602 150.24C407.957 152.459 406.079 154.037 404.97 154.976C402.837 156.853 400.447 158.603 397.802 160.224C395.157 161.76 392.682 163.125 390.378 164.32C388.074 165.429 386.239 166.368 384.874 167.136C382.997 168.075 381.205 169.013 379.498 169.952C377.877 170.891 376.469 171.701 375.274 172.384C382.015 170.08 388.714 166.923 395.37 162.912C402.111 158.816 408.298 154.336 413.93 149.472C410.858 152.288 407.701 155.061 404.458 157.792C402.751 159.243 400.362 160.779 397.29 162.4C394.303 164.021 391.103 165.6 387.69 167.136C384.362 168.672 381.333 170.037 378.602 171.232C375.871 172.427 373.951 173.28 372.842 173.792C372.671 173.877 372.799 173.792 373.226 173.536C373.738 173.28 374.421 172.896 375.274 172.384C372.117 173.493 368.917 174.389 365.674 175.072C362.517 175.755 359.445 176.096 356.458 176.096ZM333.418 183.008C331.797 181.643 330.602 180.277 329.834 178.912C329.151 177.632 328.81 176.395 328.81 175.2C328.81 174.517 328.938 173.792 329.194 173.024C329.877 171.061 331.242 168.501 333.29 165.344C335.423 162.101 337.983 158.517 340.97 154.592C344.042 150.667 347.285 146.613 350.698 142.432C354.197 138.251 357.61 134.197 360.938 130.272C364.266 126.261 367.295 122.677 370.026 119.52C372.842 116.277 375.061 113.675 376.682 111.712C375.999 112.053 375.445 112.224 375.018 112.224C374.677 112.224 374.506 112.096 374.506 111.84C374.506 111.499 374.762 111.072 375.274 110.56C376.213 109.365 377.023 108.384 377.706 107.616C378.389 106.763 378.73 106.336 378.73 106.336C379.242 106.165 380.095 106.379 381.29 106.976C382.57 107.488 383.893 108.213 385.258 109.152C386.623 110.005 387.733 110.944 388.586 111.968C389.525 112.907 389.823 113.717 389.482 114.4C386.581 117.216 383.295 120.501 379.626 124.256C375.957 128.011 372.117 132.064 368.106 136.416C364.095 140.768 360.127 145.248 356.202 149.856C352.277 154.379 348.607 158.859 345.194 163.296C341.781 167.733 338.837 171.872 336.362 175.712L337.898 173.92L348.778 160.992C349.461 160.224 349.973 159.712 350.314 159.456C350.655 159.115 350.869 158.944 350.954 158.944C351.039 158.944 351.082 158.987 351.082 159.072C351.082 159.328 350.826 159.712 350.314 160.224C348.437 162.528 346.389 165.045 344.17 167.776C342.037 170.421 339.989 173.067 338.026 175.712C336.063 178.357 334.527 180.789 333.418 183.008ZM424.861 172C423.41 171.829 422.258 171.019 421.405 169.568C420.552 168.032 420.125 166.581 420.125 165.216C420.125 164.107 420.722 162.357 421.917 159.968C423.197 157.579 424.776 154.891 426.653 151.904C428.616 148.832 430.621 145.845 432.669 142.944C434.802 139.957 436.68 137.312 438.301 135.008C440.008 132.704 441.202 131.083 441.885 130.144C440.776 131.168 439.752 132.192 438.813 133.216C437.874 134.24 437.32 134.752 437.149 134.752C437.064 134.752 437.49 133.984 438.429 132.448C439.453 130.827 441.416 127.925 444.317 123.744C445.17 123.744 446.194 124.213 447.389 125.152C448.584 126.091 449.65 127.157 450.589 128.352C451.528 129.547 451.997 130.571 451.997 131.424C451.058 132.96 449.565 134.923 447.517 137.312C445.554 139.616 443.464 142.005 441.245 144.48C439.112 146.955 437.192 149.216 435.485 151.264C435.741 151.008 436.765 150.112 438.557 148.576C440.434 147.04 442.738 145.12 445.469 142.816C448.2 140.512 451.101 138.08 454.173 135.52C457.33 132.96 460.317 130.571 463.133 128.352C465.949 126.048 468.338 124.213 470.301 122.848C472.349 121.397 473.629 120.672 474.141 120.672C474.653 120.672 475.378 121.184 476.317 122.208C477.341 123.147 478.28 124.213 479.133 125.408C479.986 126.603 480.413 127.584 480.413 128.352C480.413 128.437 479.773 129.163 478.493 130.528C477.298 131.893 475.762 133.643 473.885 135.776C472.093 137.824 470.301 140 468.509 142.304C466.717 144.523 465.181 146.613 463.901 148.576C462.706 150.539 462.152 151.989 462.237 152.928C461.384 152.757 460.658 151.989 460.061 150.624C459.464 149.173 459.165 147.552 459.165 145.76C459.165 144.736 459.464 143.499 460.061 142.048C460.744 140.597 461.469 139.189 462.237 137.824C463.09 136.459 463.816 135.264 464.413 134.24C465.096 133.216 465.437 132.661 465.437 132.576C464.925 133.173 464.2 134.155 463.261 135.52C462.408 136.885 461.554 138.251 460.701 139.616C459.933 140.896 459.421 141.835 459.165 142.432C459.421 141.408 460.146 139.744 461.341 137.44C462.536 135.136 464.114 132.832 466.077 130.528C465.138 131.381 463.517 132.832 461.213 134.88C458.994 136.843 456.434 139.189 453.533 141.92C450.632 144.651 447.602 147.509 444.445 150.496C441.373 153.397 438.429 156.256 435.613 159.072C432.797 161.888 430.408 164.448 428.445 166.752C426.568 168.971 425.373 170.72 424.861 172ZM497.405 119.52C496.296 119.008 495.144 118.027 493.949 116.576C492.754 115.125 492.157 113.888 492.157 112.864C492.157 112.011 492.541 111.584 493.309 111.584C493.736 111.584 494.248 111.669 494.845 111.84C495.442 111.925 496.04 111.968 496.637 111.968C497.405 111.968 498.258 111.712 499.197 111.2C500.136 110.603 501.074 110.304 502.013 110.304C503.208 110.304 504.146 111.115 504.829 112.736C505.085 113.163 504.872 113.76 504.189 114.528C503.506 115.296 502.696 116.021 501.757 116.704C500.904 117.387 500.178 117.899 499.581 118.24C500.008 118.24 500.69 117.941 501.629 117.344C502.568 116.661 503.336 116.021 503.933 115.424C502.824 116.789 501.544 117.856 500.093 118.624C498.642 119.307 497.746 119.605 497.405 119.52ZM469.629 171.616C468.093 170.251 467.026 169.141 466.429 168.288C465.917 167.349 465.661 166.496 465.661 165.728C465.661 165.131 465.746 164.533 465.917 163.936C466.173 163.339 466.386 162.699 466.557 162.016C467.496 158.859 469.032 155.445 471.165 151.776C473.298 148.107 475.602 144.523 478.077 141.024C480.637 137.44 482.898 134.283 484.861 131.552C484.69 131.381 484.605 130.869 484.605 130.016C484.605 128.821 484.818 127.499 485.245 126.048C485.757 124.512 486.44 123.915 487.293 124.256C488.317 124.512 489.512 125.024 490.877 125.792C492.328 126.56 493.608 127.456 494.717 128.48C495.826 129.504 496.381 130.613 496.381 131.808C496.381 132.064 496.296 132.448 496.125 132.96H495.997C493.778 135.349 491.602 137.995 489.469 140.896C487.336 143.797 485.458 146.528 483.837 149.088C482.301 151.563 481.234 153.44 480.637 154.72C481.149 154.464 481.704 154.123 482.301 153.696C482.898 153.269 483.538 152.757 484.221 152.16C483.794 152.416 483.41 152.587 483.069 152.672C482.813 152.757 482.77 152.757 482.941 152.672C485.16 150.88 487.72 149.045 490.621 147.168C493.608 145.291 496.637 143.584 499.709 142.048C502.781 140.427 505.682 139.104 508.413 138.08H508.669C508.84 138.08 508.712 138.208 508.285 138.464C507.944 138.635 507.474 138.848 506.877 139.104C506.28 139.36 505.469 139.787 504.445 140.384C503.421 140.896 502.269 141.536 500.989 142.304C502.184 141.792 503.421 141.195 504.701 140.512C505.981 139.829 507.304 139.275 508.669 138.848C509.096 138.677 509.48 138.549 509.821 138.464C510.248 138.379 510.546 138.336 510.717 138.336C511.314 138.336 511.613 138.549 511.613 138.976C511.613 139.573 511.016 140.427 509.821 141.536C508.626 142.645 507.09 143.712 505.213 144.736C504.104 145.333 502.354 146.443 499.965 148.064C497.661 149.685 495.016 151.605 492.029 153.824C489.042 155.957 486.013 158.176 482.941 160.48C479.954 162.784 477.266 164.917 474.877 166.88C472.488 168.843 470.738 170.421 469.629 171.616ZM484.221 152.16C484.648 151.989 485.074 151.776 485.501 151.52C486.013 151.179 486.354 150.965 486.525 150.88C488.146 149.771 490.28 148.491 492.925 147.04C495.656 145.504 498.344 143.925 500.989 142.304C496.722 144.352 493.352 146.144 490.877 147.68C488.402 149.216 486.184 150.709 484.221 152.16ZM502.445 175.328C502.104 175.328 501.378 174.987 500.269 174.304C499.245 173.707 498.264 172.939 497.325 172C496.386 171.147 495.917 170.336 495.917 169.568C495.917 169.056 496.045 168.8 496.301 168.8C496.472 168.8 496.728 168.885 497.069 169.056C497.496 169.141 497.965 169.269 498.477 169.44C497.965 168.416 497.624 167.307 497.453 166.112C497.453 165.941 497.922 165.003 498.861 163.296C499.8 161.589 500.952 159.499 502.317 157.024C503.768 154.549 505.176 152.075 506.541 149.6C507.992 147.125 509.186 145.035 510.125 143.328C511.149 141.536 511.661 140.597 511.661 140.512C511.661 140.256 511.106 140.853 509.997 142.304C508.888 143.669 507.608 145.291 506.157 147.168C504.792 149.045 503.725 150.709 502.957 152.16C504.066 149.856 505.261 147.424 506.541 144.864C507.821 142.304 509.57 139.275 511.789 135.776C514.093 132.192 517.165 127.797 521.005 122.592C522.2 123.104 523.522 123.744 524.973 124.512C526.424 125.195 527.661 125.963 528.685 126.816C529.709 127.669 530.221 128.565 530.221 129.504C530.221 129.845 530.093 130.229 529.837 130.656C526.765 134.752 523.992 138.635 521.517 142.304C519.042 145.973 517.037 149.045 515.501 151.52C513.965 153.995 513.026 155.531 512.685 156.128C513.368 155.701 514.264 155.189 515.373 154.592C516.482 153.909 517.72 153.141 519.085 152.288C518.744 152.629 518.402 152.928 518.061 153.184C517.72 153.355 517.464 153.525 517.293 153.696C517.037 153.867 516.696 154.208 516.269 154.72C515.928 155.147 515.928 155.275 516.269 155.104C517.464 154.165 519.512 152.757 522.413 150.88C525.314 148.917 528.472 146.741 531.885 144.352C535.384 141.877 538.456 139.488 541.101 137.184C538.968 138.464 536.536 140.128 533.805 142.176C536.706 139.872 539.437 137.483 541.997 135.008C544.642 132.533 546.392 130.784 547.245 129.76C547.16 129.504 547.117 129.248 547.117 128.992C547.117 128.651 547.117 128.352 547.117 128.096C547.117 125.792 547.8 123.957 549.165 122.592C550.53 121.141 551.64 120.075 552.493 119.392C553.346 118.709 554.072 118.368 554.669 118.368C555.693 118.368 556.504 119.008 557.101 120.288C557.698 121.483 557.997 122.763 557.997 124.128C557.997 125.749 557.698 126.901 557.101 127.584C556.674 128.181 555.309 129.547 553.005 131.68C550.786 133.728 548.013 136.203 544.685 139.104C541.442 141.92 538.029 144.821 534.445 147.808C530.946 150.795 527.618 153.611 524.461 156.256C521.389 158.816 518.872 160.864 516.909 162.4C515.544 163.424 514.264 164.448 513.069 165.472C511.874 166.411 510.765 167.307 509.741 168.16C509.997 168.245 510.253 168.459 510.509 168.8C510.85 169.141 511.021 169.568 511.021 170.08C511.021 170.507 510.509 171.147 509.485 172C508.461 172.853 507.266 173.621 505.901 174.304C504.536 174.987 503.384 175.328 502.445 175.328ZM532.141 143.328H532.269V143.2H532.397H532.525V143.072H532.653V142.944H532.781L532.909 142.816C532.909 142.816 532.866 142.859 532.781 142.944C532.781 142.944 532.738 142.944 532.653 142.944C532.653 143.029 532.653 143.072 532.653 143.072C532.653 143.072 532.61 143.072 532.525 143.072C532.525 143.157 532.525 143.2 532.525 143.2C532.44 143.2 532.397 143.2 532.397 143.2C532.312 143.2 532.269 143.2 532.269 143.2C532.269 143.2 532.269 143.243 532.269 143.328C532.184 143.328 532.141 143.328 532.141 143.328ZM519.085 152.288C519.938 151.605 520.962 150.837 522.157 149.984C523.352 149.131 524.76 148.235 526.381 147.296C526.978 146.869 527.789 146.357 528.813 145.76C529.837 145.077 530.904 144.309 532.013 143.456C530.477 144.565 529.026 145.632 527.661 146.656C526.381 147.68 525.272 148.491 524.333 149.088L519.085 152.288ZM557.985 172.896C556.108 172.896 554.102 172.171 551.969 170.72C549.836 169.269 548.001 167.563 546.465 165.6C545.014 163.637 544.289 161.845 544.289 160.224C544.289 157.152 545.185 153.867 546.977 150.368C548.854 146.784 551.244 143.285 554.145 139.872C557.132 136.459 560.289 133.429 563.617 130.784C566.945 128.139 570.145 126.219 573.217 125.024C574.07 124.683 574.838 124.469 575.521 124.384C576.204 124.299 576.716 124.256 577.057 124.256C578.081 124.256 579.276 124.981 580.641 126.432C582.006 127.797 583.244 129.291 584.353 130.912C585.462 132.533 586.102 133.771 586.273 134.624C586.273 135.989 585.462 137.653 583.841 139.616C582.305 141.493 580.257 143.456 577.697 145.504C575.137 147.467 572.364 149.301 569.377 151.008C566.476 152.715 563.66 154.08 560.929 155.104C558.198 156.043 555.852 156.469 553.889 156.384C552.524 158.859 551.841 160.907 551.841 162.528C551.841 163.381 552.054 164.149 552.481 164.832C552.908 165.429 553.761 165.685 555.041 165.6C557.089 164.917 559.649 163.68 562.721 161.888C565.793 160.096 569.078 158.091 572.577 155.872C576.161 153.568 579.66 151.349 583.073 149.216C586.572 146.997 589.686 145.163 592.417 143.712C593.868 142.944 594.934 142.56 595.617 142.56C596.214 142.56 596.513 142.773 596.513 143.2C596.513 143.541 596.129 144.096 595.361 144.864C594.678 145.632 593.612 146.4 592.161 147.168C591.393 147.595 590.54 148.107 589.601 148.704C588.662 149.301 587.681 149.984 586.657 150.752C584.268 152.459 581.708 154.421 578.977 156.64C576.332 158.859 573.644 161.077 570.913 163.296C568.268 165.515 565.793 167.477 563.489 169.184C561.27 170.891 559.436 172.128 557.985 172.896ZM556.577 152.16C559.137 151.221 561.868 149.899 564.769 148.192C567.67 146.485 570.401 144.693 572.961 142.816C575.521 140.853 577.569 139.104 579.105 137.568L579.745 136.928C579.745 136.757 579.233 137.056 578.209 137.824L567.457 145.76C567.372 145.845 567.244 145.888 567.073 145.888C566.988 145.888 567.03 145.803 567.201 145.632C567.372 145.376 567.67 145.12 568.097 144.864C569.804 143.669 571.553 142.347 573.345 140.896C575.137 139.36 576.844 137.909 578.465 136.544C580.513 134.923 581.537 133.941 581.537 133.6C579.574 133.6 577.057 134.539 573.985 136.416C570.913 138.293 567.798 140.64 564.641 143.456C561.569 146.272 558.881 149.173 556.577 152.16Z" fill="#FEF3F3"/>
<g clip-path="url(#clip0_3_32)">
<path d="M590.95 1.68642C590.634 3.96587 590.391 4.26238 587.965 5.28165L586.668 5.82835L585.518 5.60596C584.875 5.47623 584.263 5.37431 584.147 5.37431C583.979 5.37431 583.926 5.31871 583.926 5.11486C583.926 4.64229 584.411 3.91954 585.655 2.51109C585.75 2.3999 585.687 2.39064 585.244 2.44624C583.398 2.67789 582.259 3.36357 581.131 4.88321C581.131 4.89247 580.572 4.78128 579.907 4.62376C576.691 3.88247 574.687 3.59522 572.588 3.58596C570.721 3.58596 569.54 3.78981 568.432 4.31798C567.167 4.92027 564.467 5.10559 562.621 4.72569C562.125 4.62376 561.609 4.51257 561.461 4.48476C561.05 4.41064 562.6 5.33724 563.254 5.55963C564.193 5.88394 565.638 6.02293 568.105 6.02293C570.584 6.02293 571.945 6.13412 572.841 6.40284C573.263 6.5233 573.326 6.56036 573.063 6.5233C571.386 6.30091 570.795 6.28238 567.42 6.35651C563.328 6.44917 561.83 6.43064 560.744 6.28238C560.322 6.22678 559.963 6.19898 559.942 6.21752C559.921 6.23605 559.879 6.33797 559.858 6.43064C559.837 6.56963 559.921 6.63449 560.311 6.71789C560.586 6.78275 561.123 6.9588 561.524 7.11633C561.925 7.28311 563.56 7.74641 565.152 8.15412C566.745 8.5711 568.074 8.9232 568.095 8.951C568.116 8.96954 567.473 8.98807 566.661 8.98807C564.846 8.98807 564.024 9.09 559.141 9.87761C557.854 10.0907 557.305 10.1278 555.66 10.1371C553.867 10.1463 553.646 10.1278 552.939 9.92394C551.842 9.60889 551.062 9.13632 550.281 8.30238C549.923 7.91321 549.606 7.60743 549.585 7.62596C549.511 7.69082 550.07 9.45137 550.281 9.83128C550.914 10.9339 551.874 11.6104 553.878 12.3516C555.681 13.0188 556.198 13.13 558.139 13.2968C560.427 13.4914 561.682 13.6304 561.893 13.6952C561.999 13.7323 561.071 13.7601 559.847 13.7601C557.432 13.7601 557.084 13.8064 554.3 14.4087C552.38 14.8257 551.167 14.9554 549.786 14.8905C547.908 14.8164 547.244 14.594 544.132 13.0466C541.464 11.7216 540.61 11.4158 538.996 11.2027C538.268 11.11 537.583 11.0266 537.467 11.0266C537.245 11.0266 537.73 11.3509 539.956 12.6945C542.023 13.9454 542.698 14.418 544.322 15.7523C545.873 17.031 546.864 17.6796 548.045 18.18L548.752 18.4765L548.383 18.5599C547.676 18.7174 544.829 18.6526 543.479 18.458C542.782 18.356 541.57 18.1707 540.789 18.0595C538.711 17.7538 535.811 17.763 532.984 18.1059C528.597 18.6248 525.971 18.7545 524.188 18.5321C523.788 18.4765 523.439 18.4487 523.418 18.4765C523.397 18.495 523.745 18.773 524.199 19.0881C526.53 20.7189 529.377 22.0254 531.603 22.4794C531.982 22.5628 532.879 22.6555 533.607 22.7018C535.41 22.813 536.106 23.0261 536.887 23.7118C537.467 24.2307 538.616 25.4817 538.553 25.528C538.469 25.5836 536.138 25.3797 535.621 25.2593C535.305 25.1944 534.282 24.9442 533.364 24.7033C531.128 24.1288 529.525 23.962 526.867 24.0269C525.791 24.0547 524.368 24.1381 523.703 24.2215C523.039 24.3049 522.089 24.416 521.594 24.4624C519.991 24.6477 517.85 25.3519 513.641 27.1125C512.365 27.6406 511.321 28.0669 511.321 28.0576C511.311 28.0391 511.131 27.7055 510.91 27.3071C510.446 26.4453 509.887 25.8894 509.127 25.5187C508.611 25.2685 508.495 25.25 507.514 25.2593C506.596 25.2593 506.343 25.2963 505.594 25.5465C503.654 26.1951 500.859 27.9742 498.021 30.3741C495.469 32.5424 494.425 33.1261 492.738 33.3763C491.345 33.5802 489.668 33.0705 488.498 32.0791C486.916 30.7448 486.135 28.9472 486.114 26.6584V25.4724L485.893 25.7226C485.777 25.8616 485.218 26.538 484.659 27.2144C482.56 29.7811 482.117 31.1988 483.098 32.1903C483.541 32.635 483.488 32.6721 482.939 32.3293C482.37 31.9679 480.598 30.3834 479.512 29.2529C479.09 28.8082 478.7 28.4746 478.668 28.5117C478.573 28.6043 478.141 31.2637 478.025 32.4683C477.856 34.1083 478.172 35.3593 478.974 36.1561C479.153 36.3415 479.301 36.5083 479.301 36.5268C479.301 36.638 478.13 36.3785 477.286 36.0727C475.546 35.4612 474.196 34.5161 471.201 31.8289C469.239 30.0683 469.197 30.0127 468.606 28.9842L468.005 27.9372L468.068 28.5394C468.511 32.7092 471.085 37.9167 473.996 40.5112C474.797 41.2432 474.734 41.2895 473.479 40.9004C470.357 39.9089 466.022 37.0272 463.786 34.4512L463.111 33.6821L463.08 34.0991C463.059 34.3307 463.059 35.5538 463.09 36.8326C463.132 39.4641 463.206 39.7884 463.966 41.2247C464.546 42.3181 465.157 43.0686 466.254 44.0416C468.026 45.6075 470.515 47.0345 473.89 48.4151L475.293 48.9896L474.839 49.0545C473.89 49.1749 469.756 49.2213 468.786 49.1194C466.265 48.8414 464.314 47.8777 463.375 46.4415C463.006 45.8762 462.911 45.8021 462.668 45.9411C462.51 46.0338 462.9 46.9882 463.618 48.2576C466.022 52.5015 470.072 56.1338 474.607 58.126C477.023 59.1823 478.984 59.6363 481.621 59.729C482.971 59.7846 483.108 59.7753 484.268 59.5066C486.684 58.9414 488.487 58.2279 490.533 57.0326C492.231 56.0411 493.296 55.2627 495.026 53.7524C497.125 51.9084 498.665 50.1201 499.93 48.0723L500.521 47.1179L500.458 47.6275C500.426 47.9148 500.3 48.4707 500.184 48.8692C500.068 49.2769 499.973 49.8792 499.973 50.2127C499.973 51.1857 499.772 52.798 499.551 53.5763C499.171 54.9014 498.507 56.0689 497.041 57.9592C495.353 60.1367 494.14 61.2486 491.177 63.3335C488.656 65.1033 488.445 65.2886 488.16 65.9465C488.034 66.243 487.896 66.521 487.854 66.5766C487.802 66.6229 487.675 66.8731 487.57 67.1326C487.464 67.3827 487.221 67.7349 487.032 67.9016C486.346 68.5039 486.241 69.2916 486.367 73.0628C486.399 74.3416 486.388 74.5269 486.125 75.3794C485.798 76.4635 484.754 78.3908 483.91 79.4657C483.604 79.8641 483.119 80.5683 482.834 81.0316C482.18 82.1158 480.672 84.3674 480.029 85.2199C479.343 86.1465 479.058 86.8229 479.048 87.5827C479.037 88.3426 479.185 88.5094 479.934 88.5835L480.45 88.6298L480.261 89.0097C479.923 89.6583 479.47 90.0197 478.394 90.483C477.445 90.8815 477.371 90.9 477.002 90.7981C476.791 90.7425 476.232 90.6869 475.757 90.6961C475.019 90.6961 474.797 90.7332 474.217 90.9834C472.973 91.5023 472.034 92.5771 471.486 94.1431C471.275 94.7361 471.232 95.0327 471.243 96.089C471.243 97.1731 471.275 97.414 471.486 97.8959C471.971 98.9707 473.015 99.6193 474.048 99.4804C474.65 99.397 475.831 98.7854 477.012 97.9515C477.793 97.3862 477.982 97.2936 478.288 97.3121C478.584 97.3306 478.752 97.2472 479.227 96.8951C479.944 96.3577 480.588 95.5145 481.431 94.0041C481.916 93.1424 482.18 92.781 482.454 92.5957C483.14 92.1416 484.574 90.9556 485.102 90.4089C485.386 90.1124 485.671 89.7047 485.734 89.5008C485.798 89.297 485.966 88.9449 486.104 88.7132C486.241 88.4908 486.409 88.0646 486.473 87.7681C486.546 87.4808 486.779 86.9249 487 86.5449C487.559 85.5905 487.865 84.6269 488.424 82.1436C488.688 80.9668 489.004 79.6973 489.12 79.3174C489.341 78.5947 490.923 75.8056 492.674 73.0628C493.571 71.6544 493.634 71.571 494.193 71.2838C494.995 70.8668 495.954 69.9402 497.104 68.4483C498.464 66.6878 498.96 66.243 500.405 65.4925C501.913 64.7141 502.588 64.2323 504.856 62.3698C507.693 60.0348 508.052 59.8309 512.639 57.9221C513.03 57.7646 513.926 57.2735 514.633 56.838C515.339 56.4025 516.236 55.8928 516.626 55.7075C517.291 55.3832 517.364 55.3647 518.324 55.3647C519.094 55.3647 519.6 55.4295 520.518 55.6427C521.161 55.7909 521.699 55.9484 521.699 55.9855C521.699 56.0226 521.341 56.4303 520.898 56.8936C519.337 58.5244 518.314 58.9599 516.763 58.6449C515.519 58.3854 513.22 58.9784 512.302 59.7846C511.891 60.146 511.268 61.4154 510.931 62.5922C510.815 62.9999 510.467 64.918 510.15 66.8546C509.834 68.7912 509.528 70.5425 509.465 70.7463C509.412 70.9502 509.264 71.5988 509.159 72.1826C509.043 72.7663 508.885 73.5261 508.79 73.869C508.6 74.5917 506.723 79.058 506.354 79.6788C506.027 80.2255 504.993 82.5327 504.761 83.2555C504.508 84.0246 504.508 85.0994 504.761 85.5442C504.982 85.9427 505.489 86.2484 506.037 86.3318C506.438 86.3874 506.48 86.4245 506.259 86.582C505.647 87.0268 503.907 88.1572 503.727 88.2314C503.569 88.287 503.189 88.2592 502.43 88.1294C501.217 87.9071 501.017 87.8978 500.489 88.0275C499.582 88.2499 498.707 89.0375 498.296 90.0197C498.18 90.2884 498.043 90.8815 497.979 91.354C497.652 93.9671 498.981 96.8303 500.532 96.8303C500.911 96.8303 501.745 96.4226 502.609 95.811C503.042 95.496 503.896 95.0234 504.497 94.7639C505.109 94.4952 505.773 94.1338 505.974 93.9485C506.628 93.374 507.798 92.1324 508.136 91.6598C508.315 91.4096 509.127 90.5757 509.939 89.7973C510.752 89.019 511.469 88.2962 511.532 88.185C511.775 87.7773 512.323 85.9149 512.523 84.8307C512.787 83.4316 513.051 80.9946 513.051 80.0309C513.051 78.8078 513.821 76.1299 514.812 73.9431C516.036 71.2189 517.491 69.2545 519.906 67.0492C521.309 65.7705 521.246 65.789 524.536 65.6407C529.282 65.4183 532.067 64.9921 533.839 64.2138C534.809 63.7783 535.621 63.037 536.792 61.4988C538.026 59.8958 538.458 59.451 539.007 59.2008C539.534 58.9692 539.914 58.9784 541.675 59.2564C543.384 59.5251 543.953 59.5437 545.388 59.3491C545.957 59.2749 546.695 59.2101 547.012 59.2101C547.602 59.2101 547.602 59.2101 547.739 59.5529C547.824 59.7475 548.088 60.285 548.341 60.7483C548.942 61.8602 549.585 62.4254 551.673 63.6671C553.604 64.8253 554.479 65.5203 555.027 66.3357C555.629 67.253 556.135 67.7071 558.075 69.0692C559.847 70.3201 560.617 70.9594 560.617 71.2004C560.617 71.2652 560.564 71.5525 560.512 71.8212C560.227 73.1092 560.079 74.8327 559.984 78.1592C559.932 80.1421 559.826 82.0046 559.763 82.2826C559.373 84.0431 558.402 87.1472 557.738 88.8707C556.662 91.5949 556.367 92.6513 556.42 93.6242C556.441 94.2728 556.493 94.4489 556.736 94.7732C557.147 95.3199 557.538 95.4682 558.74 95.533C559.868 95.5979 560.016 95.6627 560.47 96.2928C560.913 96.8951 560.765 97.516 559.932 98.6835C559.636 99.0912 559.457 99.573 559.362 100.222L559.278 100.731L562.98 100.713C566.123 100.694 566.871 100.713 567.916 100.861C568.601 100.954 569.181 101.009 569.223 100.981C569.255 100.954 568.939 100.453 568.517 99.8788C567.262 98.1368 567.177 98.0071 566.988 97.5716C566.713 96.96 566.439 96.6542 564.678 95.0697C562.895 93.4482 562.568 93.0034 562.389 91.91C562.21 90.7888 562.336 89.1302 562.674 88.2592C563.518 86.026 564.319 83.0794 564.52 81.4486C564.614 80.6517 564.762 80.1792 565.342 78.7707C565.722 77.8256 566.112 76.7878 566.207 76.4635L566.386 75.8705L567.757 77.3901C568.517 78.224 569.434 79.234 569.814 79.6417C570.753 80.6517 571.059 81.2355 571.755 83.3018C571.997 84.0431 572.261 84.3674 572.809 84.5991C573.242 84.7751 573.358 84.7844 573.822 84.701C574.539 84.562 575.014 84.5713 575.172 84.7381C575.446 85.0253 575.33 85.711 574.866 86.6191C574.391 87.5179 574.381 87.7125 574.655 88.6761C574.771 89.0838 575.393 89.6305 576.016 89.8715C577.165 90.3162 577.893 90.3904 581.046 90.3904C582.681 90.3904 584.042 90.3626 584.084 90.3348C584.116 90.2977 583.768 89.5842 583.304 88.7595C582.428 87.175 581.637 86.1372 581.131 85.8963C580.973 85.8222 580.561 85.396 580.224 84.9605C579.232 83.6632 578.093 82.4586 575.741 80.244C572.83 77.5013 572.039 76.7044 571.101 75.5925C570.331 74.6844 569.477 73.4798 569.477 73.313C569.477 73.2574 569.339 73.174 569.171 73.1277C568.949 73.0536 568.654 72.7293 567.947 71.7563L567.019 70.4683L567.209 69.3564C567.515 67.5125 568.042 65.826 568.865 64.1304C569.266 63.2872 570.004 61.7119 570.5 60.6463C570.985 59.5715 571.533 58.4781 571.702 58.2001C571.881 57.9314 571.997 57.6905 571.966 57.6627C571.85 57.5607 572.472 56.3469 573.084 55.4573C574.159 53.9192 574.413 53.4651 574.813 52.3995C575.256 51.2135 575.362 50.4815 575.182 49.9162C575.056 49.5363 575.066 49.4715 575.351 48.9155C575.91 47.8406 575.931 47.6646 575.889 45.1164C575.847 43.2169 575.794 42.5497 575.604 41.6509C575.109 39.2788 574.507 37.7962 573.78 37.1754L573.421 36.8789L573.917 36.4156C575.214 35.1925 576.269 32.1995 576.807 28.2151C576.986 26.9086 577.239 25.4817 577.313 25.4168C577.334 25.3983 577.682 25.4909 578.083 25.6299C579.76 26.1766 580.888 26.8716 582.091 28.0761C582.428 28.4097 583.082 29.0305 583.567 29.466C584.042 29.9016 584.506 30.3927 584.611 30.5594C584.706 30.7355 584.822 31.2173 584.875 31.6436C584.98 32.5238 585.149 32.8852 585.634 33.2095C586.056 33.4875 587.1 33.8396 587.607 33.8674C587.818 33.886 588.577 33.9694 589.305 34.0527C590.771 34.2381 591.351 34.201 592.057 33.886C592.437 33.7192 592.585 33.5616 592.964 32.9408C593.207 32.5331 593.471 31.9957 593.545 31.7548C593.639 31.4119 593.713 31.3193 593.84 31.3471C593.945 31.3656 594.072 31.3007 594.146 31.1988C594.283 31.0228 594.23 30.9301 593.924 30.8374C593.85 30.8096 594.694 28.6506 594.895 28.3356C595.179 27.8908 594.937 27.4646 593.903 26.6584C593.028 25.9635 592.891 25.7133 592.68 24.4253C592.564 23.7396 592.363 23.1929 591.467 21.0895C591.098 20.2278 591.087 20.1722 591.256 19.9591C591.393 19.7738 591.404 19.6996 591.298 19.5884C591.235 19.5143 591.087 19.4772 590.992 19.505C590.802 19.5606 590.739 19.4124 590.423 18.18C590.286 17.6426 590.286 17.5592 590.496 16.9105C590.718 16.2341 590.739 16.2156 591.055 16.2156C591.372 16.2156 592.258 15.7523 592.258 15.5762C592.258 15.5299 592.184 15.4465 592.1 15.3816C591.984 15.2982 591.878 15.3168 591.593 15.5114C591.266 15.7338 590.992 15.8172 590.992 15.706C590.992 15.6782 591.066 15.5484 591.161 15.428C591.288 15.2519 591.319 15.0666 591.277 14.6867C591.224 14.2234 591.161 14.1215 590.549 13.5006C590.191 13.1393 589.853 12.8149 589.811 12.8057C589.579 12.713 589.79 12.6482 590.286 12.6482C591.129 12.6482 591.815 12.435 592.268 12.0366C592.901 11.4806 593.049 11.1749 593.049 10.3594C593.038 9.72009 593.007 9.58109 592.627 8.93247C592.321 8.4043 592.057 8.1078 591.667 7.82055C591.129 7.44064 591.129 7.44064 591.309 7.21825C591.889 6.51403 592.005 5.15192 591.625 3.56743C591.509 3.05779 591.33 2.32578 591.245 1.94587C591.15 1.56596 591.066 1.24165 591.045 1.22311C591.024 1.20458 590.982 1.4177 590.95 1.68642ZM570.879 4.14192C570.805 4.16045 570.679 4.16045 570.616 4.14192C570.542 4.11412 570.595 4.09559 570.742 4.09559C570.89 4.09559 570.943 4.11412 570.879 4.14192ZM463.797 39.0657C463.797 39.5475 464.82 41.6231 465.484 42.4849C465.854 42.9667 465.927 43.0872 465.875 43.0872C465.79 43.0872 464.778 41.7436 464.504 41.271C464.029 40.4463 463.459 38.7506 463.702 38.8804C463.755 38.9082 463.797 38.9916 463.797 39.0657ZM559.299 57.3661C559.7 57.4588 559.773 57.5144 559.911 57.848C560.311 58.7931 560.406 59.2657 560.406 60.3127C560.406 61.2023 560.448 61.4617 560.628 61.8046C560.744 62.0362 560.934 62.4254 561.05 62.6849L561.25 63.1482L560.818 62.7312C560.069 61.9992 558.919 60.6649 558.666 60.2294C558.181 59.3769 558.054 58.6078 558.244 57.6534C558.329 57.2179 558.455 57.1808 559.299 57.3661ZM563.676 83.4316C563.38 84.5991 562.516 87.4067 562.41 87.4994C562.231 87.6754 562.821 85.4238 563.423 83.691C563.623 83.1165 563.781 82.6161 563.781 82.5883C563.781 82.5513 563.802 82.5513 563.823 82.5698C563.855 82.5976 563.781 82.9868 563.676 83.4316Z" fill="#FEF3F3"/>
</g>
<defs>
<clipPath id="clip0_3_32">
<rect width="135" height="101" fill="white" transform="translate(460)"/>
</clipPath>
</defs>
</svg>
